<svg version="1.1" xmlns="http://www.w3.org/2000/svg" width="915px" height="158px" transform="rotate(0) scale(1, 1)">
<path d="M0 0 C263.34 0 526.68 0 798 0 C798 3.96 798 7.92 798 12 C534.66 12 271.32 12 0 12 C0 8.04 0 4.08 0 0 Z " fill="#ffffff" transform="translate(58,104)"/>
<path d="M0 0 C12.54 0 25.08 0 38 0 C41.00016662 6.85053574 43.99925652 13.7013735 46.98823547 20.55677032 C48.38041402 23.7489858 49.77452666 26.94032418 51.17333984 30.12963867 C52.77786475 33.78822066 54.37354037 37.45062744 55.96875 41.11328125 C56.72339539 42.82902092 56.72339539 42.82902092 57.49328613 44.579422 C57.95376343 45.64029526 58.41424072 46.70116852 58.88867188 47.79418945 C59.2972644 48.72906693 59.70585693 49.6639444 60.12683105 50.62715149 C61 53 61 53 61 56 C61.66 56 62.32 56 63 56 C63.13027588 55.48695312 63.26055176 54.97390625 63.39477539 54.4453125 C65.91560309 45.31151666 69.7504361 36.7073532 73.4375 28 C74.44728614 25.60269738 75.45562427 23.20479146 76.46339417 20.80664062 C77.08636103 19.3255426 77.71070375 17.8450221 78.33677673 16.36523438 C80.62925025 10.93489873 82.80961691 5.47595772 85 0 C97.54 0 110.08 0 123 0 C123 0.99 123 1.98 123 3 C119.37 3.66 115.74 4.32 112 5 C112 30.74 112 56.48 112 83 C117.43742474 85.75154167 117.43742474 85.75154167 123 87 C123 87.99 123 88.98 123 90 C107.16 90 91.32 90 75 90 C75 89.01 75 88.02 75 87 C80.445 86.01 80.445 86.01 86 85 C86.95037485 81.19850061 87.1208429 78.2884224 87.11352539 74.39550781 C87.11367142 73.74143448 87.11381744 73.08736115 87.1139679 72.41346741 C87.11327341 70.25998574 87.10550283 68.10659148 87.09765625 65.953125 C87.09579042 64.45668586 87.09436729 62.96024612 87.09336853 61.46380615 C87.08955635 57.53141585 87.07973717 53.59906268 87.06866455 49.66668701 C87.05842249 45.65149437 87.05386492 41.6362957 87.04882812 37.62109375 C87.03811372 29.74737883 87.02105291 21.87369404 87 14 C86.29206299 15.69467407 86.29206299 15.69467407 85.56982422 17.42358398 C75.44943471 41.64548865 65.28593806 65.84789385 55 90 C54.01 90 53.02 90 52 90 C40.62966782 64.82773934 29.84310204 39.40240735 19 14 C18.93031641 22.09325164 18.87709606 30.18637675 18.84456348 38.27985477 C18.82894502 42.03848473 18.80777732 45.79690857 18.77368164 49.55541992 C18.74095083 53.18643135 18.72311829 56.81724523 18.71536827 60.44839287 C18.70984925 61.82980901 18.69907209 63.21121502 18.68280983 64.59254646 C18.42377734 74.746465 18.42377734 74.746465 22 84 C24.42817269 85.45813215 24.42817269 85.45813215 27.1875 85.9375 C28.53908203 86.26041016 28.53908203 86.26041016 29.91796875 86.58984375 C30.60503906 86.72519531 31.29210937 86.86054687 32 87 C32 87.99 32 88.98 32 90 C21.44 90 10.88 90 0 90 C0 89.01 0 88.02 0 87 C0.71027344 86.82984375 1.42054688 86.6596875 2.15234375 86.484375 C3.07144531 86.24203125 3.99054687 85.9996875 4.9375 85.75 C5.85402344 85.51796875 6.77054688 85.2859375 7.71484375 85.046875 C10.11153436 84.26955381 10.11153436 84.26955381 10.63175964 82.37879944 C11.12397744 79.19911692 11.15222933 76.11065897 11.17700195 72.89233398 C11.18357315 72.18455811 11.19014435 71.47678223 11.19691467 70.74755859 C11.21657058 68.41373582 11.22828865 66.07997693 11.23828125 63.74609375 C11.24235678 62.94812944 11.2464323 62.15016514 11.25063133 61.3280201 C11.27145217 57.11004015 11.285775 52.89209242 11.29516602 48.67407227 C11.30626433 44.3135531 11.34071423 39.95353948 11.38033772 35.59319973 C11.40643282 32.24151132 11.41485113 28.88994521 11.41844749 25.53816414 C11.42332645 23.93015158 11.43497757 22.32214494 11.45348549 20.71423149 C11.47774292 18.46849678 11.47693825 16.2240961 11.4699707 13.97827148 C11.47583694 12.70016098 11.48170319 11.42205048 11.48774719 10.10520935 C11.29298108 6.95062284 11.29298108 6.95062284 9.20500183 5.10682678 C6.19992085 3.5983908 3.32288169 3.31950786 0 3 C0 2.01 0 1.02 0 0 Z " fill="#ffffff" transform="translate(733,1)"/>
<path d="M0 0 C3.04872428 1.01503306 5.11654751 1.55296866 8.28515625 1.09375 C9.31528902 -0.55446244 10.31630253 -2.22128702 11.28515625 -3.90625 C12.60515625 -3.90625 13.92515625 -3.90625 15.28515625 -3.90625 C15.28515625 6.65375 15.28515625 17.21375 15.28515625 28.09375 C13.96515625 28.09375 12.64515625 28.09375 11.28515625 28.09375 C10.75728516 26.91619141 10.75728516 26.91619141 10.21875 25.71484375 C5.03841403 14.69141343 -0.33934904 8.70492206 -11.71484375 4.09375 C-19.23449089 1.81768822 -26.65932407 2.81273329 -33.71484375 6.09375 C-41.73682289 11.18462138 -44.48235399 19.16402867 -46.52734375 28.15625 C-49.31928468 43.82919113 -49.01512406 60.90045028 -40.625 74.9140625 C-37.4892237 79.1162139 -33.73498305 81.76265246 -28.71484375 83.09375 C-21.58154127 83.63716682 -14.75143856 83.32345219 -7.71484375 82.09375 C-7.73758961 77.98834549 -7.81482309 73.88574441 -7.90234375 69.78125 C-7.90814453 68.61400391 -7.91394531 67.44675781 -7.91992188 66.24414062 C-7.96342773 64.56674805 -7.96342773 64.56674805 -8.0078125 62.85546875 C-8.02352295 61.82381592 -8.0392334 60.79216309 -8.05541992 59.72924805 C-8.47636973 56.88671909 -8.47636973 56.88671909 -11.08325195 55.27661133 C-13.65651917 54.11996603 -15.92926756 53.49168946 -18.71484375 53.09375 C-18.71484375 52.10375 -18.71484375 51.11375 -18.71484375 50.09375 C-4.19484375 50.09375 10.32515625 50.09375 25.28515625 50.09375 C25.28515625 51.08375 25.28515625 52.07375 25.28515625 53.09375 C24.71925781 53.28710938 24.15335938 53.48046875 23.5703125 53.6796875 C22.47009766 54.07027344 22.47009766 54.07027344 21.34765625 54.46875 C20.25130859 54.85160156 20.25130859 54.85160156 19.1328125 55.2421875 C17.09833509 55.94646413 17.09833509 55.94646413 16.28515625 58.09375 C16.13171416 59.97847859 16.03556054 61.86802874 15.96875 63.7578125 C15.92685547 64.87929687 15.88496094 66.00078125 15.84179688 67.15625 C15.80248047 68.331875 15.76316406 69.5075 15.72265625 70.71875 C15.67947266 71.90210937 15.63628906 73.08546875 15.59179688 74.3046875 C15.48548199 77.23425328 15.38344983 80.16390588 15.28515625 83.09375 C13.14194898 83.89249865 10.99543209 84.68236858 8.84765625 85.46875 C7.65269531 85.90960938 6.45773437 86.35046875 5.2265625 86.8046875 C-9.90463868 91.93229284 -30.15263931 93.23404656 -45.20703125 87.34765625 C-57.15408805 81.37412785 -66.50516945 72.54398857 -71.71484375 60.09375 C-75.5695339 48.0082722 -74.48335582 34.57290216 -69.35546875 23.03515625 C-62.80907595 10.60038437 -53.65297854 2.25524859 -40.22265625 -2.21484375 C-26.77311217 -5.92289562 -12.9535913 -4.85219292 0 0 Z " fill="#ffffff" transform="translate(528.71484375,3.90625)"/>
<path d="M0 0 C15.18 0 30.36 0 46 0 C46 0.99 46 1.98 46 3 C43.36 3.66 40.72 4.32 38 5 C38.31310497 11.26209944 41.57162519 15.30293169 45.0625 20.25 C46.18231848 21.85664082 47.29840774 23.46588947 48.41015625 25.078125 C48.90652588 25.78356445 49.40289551 26.48900391 49.91430664 27.21582031 C51 29 51 29 51 31 C55.22191909 27.91708786 58.16032763 24.51923121 61.25 20.375 C61.69601562 19.78976563 62.14203125 19.20453125 62.6015625 18.6015625 C66.1216584 13.95076913 67.12680401 11.83298451 67 6 C64.36 5.01 61.72 4.02 59 3 C59 2.01 59 1.02 59 0 C69.89 0 80.78 0 92 0 C92 0.99 92 1.98 92 3 C91.443125 3.12375 90.88625 3.2475 90.3125 3.375 C80.39758591 6.05470651 75.26760471 13.45208721 69.1640625 21.2578125 C66.66317845 24.42680276 64.09033914 27.52907217 61.5 30.625 C61.05414551 31.15834961 60.60829102 31.69169922 60.14892578 32.24121094 C59.10011606 33.49483733 58.0501849 34.74752539 57 36 C58.36267155 39.73249873 60.06431465 42.84249793 62.2734375 46.140625 C62.92795898 47.12135986 63.58248047 48.10209473 64.25683594 49.11254883 C64.95583008 50.14790771 65.65482422 51.1832666 66.375 52.25 C67.44669434 53.8446106 67.44669434 53.8446106 68.54003906 55.47143555 C70.68509118 58.65332672 72.83980124 61.82837579 75 65 C75.61456055 65.90250488 76.22912109 66.80500977 76.86230469 67.73486328 C78.48148032 70.10124489 80.11201826 72.45910795 81.75 74.8125 C82.22614746 75.5044043 82.70229492 76.19630859 83.19287109 76.90917969 C86.42957823 81.50570068 89.20722987 84.96557676 95 86 C95 87.32 95 88.64 95 90 C80.15 90 65.3 90 50 90 C50.495 88.02 50.495 88.02 51 86 C53.31 85.67 55.62 85.34 58 85 C57.47825652 79.93022844 55.00967452 76.36768059 52.3125 72.1875 C51.86277832 71.47916016 51.41305664 70.77082031 50.94970703 70.04101562 C47.84110382 65.18779956 44.57913198 60.52100881 41 56 C28.97296905 67.88323325 28.97296905 67.88323325 23 83 C26.68734758 85.45823172 29.69699971 86.01242616 34 87 C34 87.99 34 88.98 34 90 C22.12 90 10.24 90 -2 90 C-1.67 88.68 -1.34 87.36 -1 86 C0.87242127 85.35316356 2.74599472 84.7094848 4.625 84.08203125 C13.61192143 79.9876608 20.1188823 70.6067745 26 63 C26.45004395 62.42008301 26.90008789 61.84016602 27.36376953 61.24267578 C30.26019056 57.50847169 33.13684446 53.75975957 36 50 C32.26302512 42.83235966 27.85513311 36.27748463 23.1875 29.6875 C18.78868167 23.45414343 14.46592158 17.22878037 10.4375 10.75 C7.48943904 6.23270392 5.24616135 4.31154034 0 3 C0 2.01 0 1.02 0 0 Z " fill="#ffffff" transform="translate(319,0)"/>
<path d="M0 0 C15.51 0 31.02 0 47 0 C47 1.32 47 2.64 47 4 C46.38511719 4.01417969 45.77023438 4.02835937 45.13671875 4.04296875 C43.92435547 4.11451172 43.92435547 4.11451172 42.6875 4.1875 C41.48673828 4.23970703 41.48673828 4.23970703 40.26171875 4.29296875 C37.80388298 4.81789711 37.80388298 4.81789711 36.38191223 7.17814636 C34.82809368 10.35103132 34.62550172 12.34238595 34.62768555 15.85668945 C34.62145676 17.01171463 34.61522797 18.16673981 34.60881042 19.35676575 C34.61802017 20.59641586 34.62722992 21.83606598 34.63671875 23.11328125 C34.63622025 24.39679977 34.63572174 25.6803183 34.63520813 27.00273132 C34.63529767 29.71702878 34.64568537 32.43102812 34.66381836 35.14526367 C34.68643695 38.60499567 34.68706002 42.06429002 34.68030071 45.52407551 C34.67613106 48.84552614 34.68815462 52.16684558 34.69921875 55.48828125 C34.69830734 56.72185867 34.69739594 57.9554361 34.69645691 59.22639465 C34.75804099 66.74983504 35.62123284 72.86369853 38 80 C39.73142854 81.15922128 39.73142854 81.15922128 42 82 C43.36125 82.556875 43.36125 82.556875 44.75 83.125 C50.86424553 84.77114303 56.30527975 84.55844219 62.11328125 82.09375 C68.14640056 78.59628953 70.56565974 73.3344138 72.39996338 66.85488892 C73.46502464 61.78747888 73.42713429 56.76582196 73.3984375 51.60546875 C73.40130768 50.45508621 73.40417786 49.30470367 73.40713501 48.11946106 C73.40916461 45.70504255 73.40371261 43.29060719 73.39111328 40.8762207 C73.37497065 37.18078103 73.39103827 33.48642279 73.41015625 29.79101562 C73.40817506 27.43749759 73.40433398 25.08398023 73.3984375 22.73046875 C73.40451019 21.62833542 73.41058289 20.52620209 73.4168396 19.39067078 C73.40738312 18.36222549 73.39792664 17.33378021 73.38818359 16.27416992 C73.38460342 14.92375862 73.38460342 14.92375862 73.38095093 13.54606628 C72.91503466 10.43213841 71.84012771 8.5355452 70 6 C67.76162201 4.98325288 67.76162201 4.98325288 65.3125 4.6875 C64.50425781 4.54699219 63.69601563 4.40648437 62.86328125 4.26171875 C62.24839844 4.17535156 61.63351563 4.08898437 61 4 C61 2.68 61 1.36 61 0 C71.56 0 82.12 0 93 0 C93 1.32 93 2.64 93 4 C92.37351562 4.10957031 91.74703125 4.21914062 91.1015625 4.33203125 C90.28429687 4.49058594 89.46703125 4.64914063 88.625 4.8125 C87.81289063 4.96332031 87.00078125 5.11414063 86.1640625 5.26953125 C83.64179359 5.87544942 83.64179359 5.87544942 82 9 C81.68690546 11.16707507 81.68690546 11.16707507 81.71289062 13.5847168 C81.69276917 14.97843758 81.69276917 14.97843758 81.67224121 16.40031433 C81.66696411 17.40645279 81.66168701 18.41259125 81.65625 19.44921875 C81.6416272 20.49463333 81.62700439 21.54004791 81.61193848 22.61714172 C81.56538698 25.97388829 81.53128987 29.33057864 81.5 32.6875 C81.10193627 74.51787443 81.10193627 74.51787443 72.17578125 83.921875 C63.95382277 91.74000448 54.48418979 93.33890602 43.41796875 93.1484375 C33.41748237 92.53451427 24.62577201 90.22150035 17.625 82.6875 C11.3906965 75.45060383 11.55946083 66.80218647 11.55859375 57.77734375 C11.54538589 56.51789444 11.53217804 55.25844513 11.51856995 53.96083069 C11.48471469 50.63116295 11.46224926 47.30188095 11.44702148 43.97210693 C11.42507488 39.28242612 11.39221316 34.59296158 11.34571838 29.90345764 C11.32147123 27.41267834 11.30652353 24.92178635 11.30210876 22.43089294 C11.66473996 13.1381433 11.66473996 13.1381433 8 5 C6.65252916 4.76924918 5.29622435 4.58846937 3.9375 4.4375 C2.638125 4.293125 1.33875 4.14875 0 4 C0 2.68 0 1.36 0 0 Z " fill="#ffffff" transform="translate(183,0)"/>
<path d="M0 0 C14.52 0 29.04 0 44 0 C44 0.99 44 1.98 44 3 C41.36 3.66 38.72 4.32 36 5 C36.54048852 9.91497968 38.14669777 13.72325314 40.4921875 18.0078125 C40.83879425 18.65571747 41.185401 19.30362244 41.54251099 19.97116089 C42.27317225 21.33304091 43.00793885 22.69272554 43.74658203 24.05029297 C44.87288817 26.12111719 45.98627571 28.19847771 47.09765625 30.27734375 C47.81175478 31.6045679 48.52657435 32.93140439 49.2421875 34.2578125 C49.73922684 35.18293137 49.73922684 35.18293137 50.24630737 36.1267395 C51.96253727 39.27322462 53.7572015 42.20147914 56 45 C58.36864448 40.98129287 60.73468237 36.96106677 63.09838867 32.93945312 C63.90172203 31.57347949 64.70574799 30.20791292 65.51049805 28.84277344 C66.67161448 26.87282976 67.83017636 24.90140277 68.98828125 22.9296875 C69.34465164 22.32631561 69.70102203 21.72294373 70.06819153 21.10128784 C74.51620776 14.00092265 74.51620776 14.00092265 76 6 C73.03 5.01 70.06 4.02 67 3 C67 2.01 67 1.02 67 0 C76.57 0 86.14 0 96 0 C96 0.99 96 1.98 96 3 C94.824375 3.45375 93.64875 3.9075 92.4375 4.375 C83.01669307 9.09674638 77.91375297 21.95227984 72.87036133 30.77148438 C68.0966648 39.0601381 68.0966648 39.0601381 65.3828125 42.26171875 C59.1552533 50.02954615 59.29761381 58.10451643 59.3125 67.625 C59.31269135 68.30868652 59.31288269 68.99237305 59.31307983 69.69677734 C58.91457421 77.16885218 58.91457421 77.16885218 61.38085938 83.85424805 C63.57808594 85.40907076 65.54541404 85.74143354 68.1875 86.1875 C69.08855469 86.34605469 69.98960937 86.50460938 70.91796875 86.66796875 C71.60503906 86.77753906 72.29210937 86.88710937 73 87 C73 87.99 73 88.98 73 90 C56.17 90 39.34 90 22 90 C22 89.01 22 88.02 22 87 C23.15628906 86.83564453 23.15628906 86.83564453 24.3359375 86.66796875 C25.33882812 86.50941406 26.34171875 86.35085937 27.375 86.1875 C28.37273438 86.03667969 29.37046875 85.88585937 30.3984375 85.73046875 C33.3287364 85.21227702 33.3287364 85.21227702 35 82 C38.30415783 63.40922579 33.86835452 49.50382172 23.91699219 34.04394531 C21.8998015 30.84089724 20.03786364 27.57977733 18.1953125 24.2734375 C16.96403572 22.07784786 15.73227873 19.88252744 14.5 17.6875 C13.92556152 16.66052002 13.35112305 15.63354004 12.75927734 14.57543945 C11.93484131 13.15171021 11.93484131 13.15171021 11.09375 11.69921875 C10.61615234 10.86221436 10.13855469 10.02520996 9.64648438 9.1628418 C7.04346137 5.74347929 4.01615012 4.33871671 0 3 C0 2.01 0 1.02 0 0 Z " fill="#ffffff" transform="translate(596,0)"/>
<path d="M0 0 C16.17 0 32.34 0 49 0 C49 0.99 49 1.98 49 3 C47.84371094 3.16435547 47.84371094 3.16435547 46.6640625 3.33203125 C45.66117188 3.49058594 44.65828125 3.64914063 43.625 3.8125 C42.12839844 4.03873047 42.12839844 4.03873047 40.6015625 4.26953125 C37.6712636 4.78772298 37.6712636 4.78772298 36 8 C35.70101757 11.20313809 35.70101757 11.20313809 35.75708008 14.91821289 C35.75518173 15.61769547 35.75328339 16.31717804 35.75132751 17.03785706 C35.74762325 19.34957086 35.75831807 21.66097038 35.76953125 23.97265625 C35.77072328 25.57783471 35.77117616 27.18301387 35.7709198 28.78819275 C35.77248402 32.15156422 35.78076955 35.51482915 35.79418945 38.87817383 C35.81119286 43.19490199 35.81500336 47.51151319 35.81424427 51.82827091 C35.81451583 55.14217755 35.81999459 58.45605849 35.82724571 61.76995659 C35.83043325 63.36201216 35.83239999 64.95407064 35.83313942 66.54612923 C35.83530132 68.76786413 35.84404186 70.98947358 35.85473633 73.21118164 C35.85854813 74.47676407 35.86235992 75.7423465 35.86628723 77.04627991 C35.79647084 79.93153118 35.79647084 79.93153118 37 82 C44.75535916 84.58511972 57.57301274 84.39522157 65.18359375 81.1484375 C72.57450374 76.47547506 75.18768964 69.7688809 77.6640625 61.66015625 C78.32535156 60.34337891 78.32535156 60.34337891 79 59 C81.58349609 58.33374023 81.58349609 58.33374023 84 58 C83.59612263 62.23634304 83.18707207 66.47214466 82.77319336 70.70751953 C82.63309262 72.1487876 82.49441322 73.59019456 82.35717773 75.03173828 C82.1598147 77.1022689 81.95736639 79.17224825 81.75390625 81.2421875 C81.63345947 82.4885498 81.5130127 83.73491211 81.38891602 85.01904297 C81 88 81 88 80 90 C53.6 90 27.2 90 0 90 C0 89.01 0 88.02 0 87 C0.61488281 86.93683594 1.22976562 86.87367187 1.86328125 86.80859375 C2.67152344 86.68613281 3.47976562 86.56367187 4.3125 86.4375 C5.51326172 86.28087891 5.51326172 86.28087891 6.73828125 86.12109375 C9.51669645 84.74388276 10.25581673 83.2698455 11.38722229 80.43840027 C12.80509706 74.79631152 12.40409579 68.87168257 12.36328125 63.08984375 C12.36276182 61.63448589 12.36328271 60.17912732 12.36479187 58.72377014 C12.36470248 55.68349645 12.35433993 52.64348974 12.33618164 49.60327148 C12.3134753 45.71743323 12.3129576 41.83198375 12.31969929 37.94609737 C12.32304929 34.94426553 12.31639014 31.94252142 12.30657005 28.94070625 C12.30273706 27.50826032 12.3015619 26.07580459 12.3031559 24.64335442 C12.30352905 22.63843451 12.28937751 20.63352802 12.2746582 18.62866211 C12.27005081 17.4906163 12.26544342 16.3525705 12.26069641 15.18003845 C11.9824348 11.78573545 11.34940182 9.12546297 10 6 C6.55549263 3.70366176 4.06187717 3.45983515 0 3 C0 2.01 0 1.02 0 0 Z " fill="#ffffff" transform="translate(58,1)"/>
<path d="M0 0 C3.63 0 7.26 0 11 0 C11 32.01 11 64.02 11 97 C7.37 97 3.74 97 0 97 C0 64.99 0 32.98 0 0 Z " fill="#ffffff" transform="translate(866,61)"/>
<path d="M0 0 C3.63 0 7.26 0 11 0 C11 32.01 11 64.02 11 97 C7.37 97 3.74 97 0 97 C0 64.99 0 32.98 0 0 Z " fill="#ffffff" transform="translate(37,61)"/>
<path d="M0 0 C3.96 0 7.92 0 12 0 C12 26.73 12 53.46 12 81 C8.04 81 4.08 81 0 81 C0 54.27 0 27.54 0 0 Z " fill="#ffffff" transform="translate(884,69)"/>
<path d="M0 0 C3.96 0 7.92 0 12 0 C12 26.73 12 53.46 12 81 C8.04 81 4.08 81 0 81 C0 54.27 0 27.54 0 0 Z " fill="#ffffff" transform="translate(18,69)"/>
<path d="M0 0 C3.96 0 7.92 0 12 0 C12 21.45 12 42.9 12 65 C8.04 65 4.08 65 0 65 C0 43.55 0 22.1 0 0 Z " fill="#ffffff" transform="translate(903,77)"/>
<path d="M0 0 C3.63 0 7.26 0 11 0 C11 21.45 11 42.9 11 65 C7.37 65 3.74 65 0 65 C0 43.55 0 22.1 0 0 Z " fill="#ffffff" transform="translate(0,77)"/>
<path d="M0 0 C2.27024968 -0.08097324 4.54132075 -0.13917704 6.8125 -0.1875 C8.07707031 -0.22230469 9.34164062 -0.25710937 10.64453125 -0.29296875 C14 0 14 0 15.96875 1.29296875 C17.7023518 4.16260506 16.62118741 6.83759137 16 10 C15.65192708 13.11987668 15.65192708 13.11987668 18 15.0625 C18.66 15.701875 19.32 16.34125 20 17 C20 17.66 20 18.32 20 19 C16.8125 19.4375 16.8125 19.4375 13 19 C10.88841619 16.91454966 9.43260857 14.58793807 8 12 C8 13.32 8 14.64 8 16 C8.66 16.33 9.32 16.66 10 17 C10 17.66 10 18.32 10 19 C6.7 19 3.4 19 0 19 C0 18.34 0 17.68 0 17 C0.66 17 1.32 17 2 17 C2 12.05 2 7.1 2 2 C1.34 2 0.68 2 0 2 C0 1.34 0 0.68 0 0 Z M7 2 C7 4.31 7 6.62 7 9 C8.32 8.67 9.64 8.34 11 8 C11.6814823 6.10820797 11.6814823 6.10820797 12 4 C11.34 3.34 10.68 2.68 10 2 C9.01 2 8.02 2 7 2 Z " fill="#ffffff" transform="translate(597,126)"/>
<path d="M0 0 C5.28 0 10.56 0 16 0 C16 1.98 16 3.96 16 6 C15.34 6 14.68 6 14 6 C13 5 12 4 11 3 C10.01 2.67 9.02 2.34 8 2 C8.33 3.65 8.66 5.3 9 7 C9.33 6.01 9.66 5.02 10 4 C10.66 4 11.32 4 12 4 C12 7.63 12 11.26 12 15 C11.34 15 10.68 15 10 15 C9.67 14.01 9.34 13.02 9 12 C8.67 13.65 8.34 15.3 8 17 C11.77545388 15.90931332 14.47043472 15.0916909 17 12 C16.67 14.31 16.34 16.62 16 19 C10.72 19 5.44 19 0 19 C0.33 18.34 0.66 17.68 1 17 C1.23172827 14.45384991 1.41894529 11.92603775 1.5625 9.375 C1.60568359 8.66859375 1.64886719 7.9621875 1.69335938 7.234375 C1.79944751 5.48981463 1.90022889 3.74493303 2 2 C1.34 2 0.68 2 0 2 C0 1.34 0 0.68 0 0 Z " fill="#ffffff" transform="translate(495,126)"/>
<path d="M0 0 C3.0625 -0.5 3.0625 -0.5 7 0 C9.71294856 2.38823271 11.86481726 5.09251712 14 8 C14 6.35 14 4.7 14 3 C13.34 2.67 12.68 2.34 12 2 C12 1.34 12 0.68 12 0 C14.31 0 16.62 0 19 0 C19 0.66 19 1.32 19 2 C18.34 2 17.68 2 17 2 C17 7.94 17 13.88 17 20 C16.34 20 15.68 20 15 20 C13.21229093 17.8664718 11.53127176 15.73155942 9.875 13.5 C9.40707031 12.87996094 8.93914062 12.25992188 8.45703125 11.62109375 C7.29903391 10.08497483 6.14878643 8.54301941 5 7 C4.94577053 8.4370809 4.90710277 9.87475462 4.875 11.3125 C4.84019531 12.51326172 4.84019531 12.51326172 4.8046875 13.73828125 C4.84182678 16.28388576 4.84182678 16.28388576 7 19 C4.69 19 2.38 19 0 19 C0.33 18.34 0.66 17.68 1 17 C1.23172827 14.45384991 1.41894529 11.92603775 1.5625 9.375 C1.60568359 8.66859375 1.64886719 7.9621875 1.69335938 7.234375 C1.79944751 5.48981463 1.90022889 3.74493303 2 2 C1.34 2 0.68 2 0 2 C0 1.34 0 0.68 0 0 Z " fill="#ffffff" transform="translate(362,126)"/>
<path d="M0 0 C5.10880829 -0.70466321 5.10880829 -0.70466321 8 0 C10.49126669 2.37660588 12.25736814 5.04280654 14 8 C14.33 6.02 14.66 4.04 15 2 C14.34 2 13.68 2 13 2 C13 1.34 13 0.68 13 0 C15.31 0 17.62 0 20 0 C20 0.66 20 1.32 20 2 C19.01 2.495 19.01 2.495 18 3 C17.67 8.61 17.34 14.22 17 20 C14.06955453 17.06955453 11.33051509 14.32223883 8.6875 11.1875 C8.17574219 10.58292969 7.66398438 9.97835937 7.13671875 9.35546875 C6.76160156 8.90816406 6.38648438 8.46085938 6 8 C5.9729957 9.45823212 5.95360213 10.91660675 5.9375 12.375 C5.92589844 13.18710938 5.91429687 13.99921875 5.90234375 14.8359375 C5.85533666 17.04937142 5.85533666 17.04937142 7 19 C4.69 19 2.38 19 0 19 C0.99 17.515 0.99 17.515 2 16 C2.24246783 12.79620876 2.24246783 12.79620876 2.125 9.3125 C2.10695313 8.13300781 2.08890625 6.95351562 2.0703125 5.73828125 C2.04710937 4.83464844 2.02390625 3.93101562 2 3 C1.34 2.67 0.68 2.34 0 2 C0 1.34 0 0.68 0 0 Z " fill="#ffffff" transform="translate(519,126)"/>
<path d="M0 0 C5.28 0 10.56 0 16 0 C16 1.98 16 3.96 16 6 C15.34 6 14.68 6 14 6 C13.34 5.01 12.68 4.02 12 3 C9.94074861 2.27617533 9.94074861 2.27617533 8 2 C8 3.98 8 5.96 8 8 C8.66 8 9.32 8 10 8 C10.66 6.68 11.32 5.36 12 4 C12 7.63 12 11.26 12 15 C11.34 13.68 10.68 12.36 10 11 C9.34 11 8.68 11 8 11 C8 12.98 8 14.96 8 17 C11.77545388 15.90931332 14.47043472 15.0916909 17 12 C17 14.31 17 16.62 17 19 C11.39 19 5.78 19 0 19 C0.33 18.34 0.66 17.68 1 17 C1.66 17 2.32 17 3 17 C2.88658363 14.68690295 2.75896193 12.37449815 2.625 10.0625 C2.55539062 8.77472656 2.48578125 7.48695313 2.4140625 6.16015625 C2.27742188 5.11730469 2.14078125 4.07445312 2 3 C1.34 2.67 0.68 2.34 0 2 C0 1.34 0 0.68 0 0 Z " fill="#ffffff" transform="translate(388,126)"/>
<path d="M0 0 C1.33998047 0.06960937 1.33998047 0.06960937 2.70703125 0.140625 C3.60808594 0.17671875 4.50914062 0.2128125 5.4375 0.25 C6.46810547 0.31960937 6.46810547 0.31960937 7.51953125 0.390625 C7.51953125 2.700625 7.51953125 5.010625 7.51953125 7.390625 C6.85953125 7.390625 6.19953125 7.390625 5.51953125 7.390625 C5.27203125 6.75125 5.02453125 6.111875 4.76953125 5.453125 C3.70390692 3.20320959 3.70390692 3.20320959 1.39453125 2.640625 C0.46640625 2.516875 0.46640625 2.516875 -0.48046875 2.390625 C-0.15046875 3.380625 0.17953125 4.370625 0.51953125 5.390625 C1.67453125 5.968125 2.82953125 6.545625 4.01953125 7.140625 C7.28864317 8.88280604 7.43796096 9.13231909 8.64453125 12.953125 C8.51953125 16.390625 8.51953125 16.390625 7.3671875 18.09375 C4.78931619 19.90316495 2.94590236 19.68802633 -0.16796875 19.578125 C-1.65876953 19.53751953 -1.65876953 19.53751953 -3.1796875 19.49609375 C-3.93894531 19.46128906 -4.69820313 19.42648438 -5.48046875 19.390625 C-5.48046875 17.080625 -5.48046875 14.770625 -5.48046875 12.390625 C-2.48046875 13.390625 -2.48046875 13.390625 -0.48046875 16.390625 C0.83953125 16.390625 2.15953125 16.390625 3.51953125 16.390625 C3.51953125 15.730625 3.51953125 15.070625 3.51953125 14.390625 C1.75152794 13.20994671 1.75152794 13.20994671 -0.41796875 12.078125 C-4.32711421 9.72154795 -4.32711421 9.72154795 -5.66796875 6.828125 C-5.3692821 2.94519856 -3.96466906 0.62435733 0 0 Z " fill="#ffffff" transform="translate(417.48046875,125.609375)"/>
<path d="M0 0 C5.28 0 10.56 0 16 0 C16 1.98 16 3.96 16 6 C15.4225 5.525625 14.845 5.05125 14.25 4.5625 C12.07417916 3.0515133 10.57397552 2.45963849 8 2 C8 3.98 8 5.96 8 8 C8.45375 7.505 8.9075 7.01 9.375 6.5 C11 5 11 5 13 5 C13 8.3 13 11.6 13 15 C12.34 15 11.68 15 11 15 C10.67 14.01 10.34 13.02 10 12 C9.34 11.67 8.68 11.34 8 11 C8.66 13.64 9.32 16.28 10 19 C6.7 19 3.4 19 0 19 C0.99 17.515 0.99 17.515 2 16 C2.24246783 12.79620876 2.24246783 12.79620876 2.125 9.3125 C2.10695313 8.13300781 2.08890625 6.95351562 2.0703125 5.73828125 C2.04710937 4.83464844 2.02390625 3.93101562 2 3 C1.34 2.67 0.68 2.34 0 2 C0 1.34 0 0.68 0 0 Z " fill="#ffffff" transform="translate(297,126)"/>
<path d="M0 0 C1.37478516 0.01740234 1.37478516 0.01740234 2.77734375 0.03515625 C3.69644531 0.04417969 4.61554688 0.05320312 5.5625 0.0625 C6.27277344 0.07410156 6.98304688 0.08570312 7.71484375 0.09765625 C7.71484375 2.40765625 7.71484375 4.71765625 7.71484375 7.09765625 C7.11671875 6.43765625 6.51859375 5.77765625 5.90234375 5.09765625 C3.83982541 2.76027165 3.83982541 2.76027165 0.71484375 3.09765625 C0.38484375 3.75765625 0.05484375 4.41765625 -0.28515625 5.09765625 C0.79765625 5.43796875 0.79765625 5.43796875 1.90234375 5.78515625 C5.35803275 7.39781112 7.35078602 9.10781853 9.71484375 12.09765625 C9.63470048 15.54381681 9.15923335 16.65326665 6.71484375 19.09765625 C4.11328125 19.29296875 4.11328125 19.29296875 1.08984375 19.22265625 C-0.41449219 19.19558594 -0.41449219 19.19558594 -1.94921875 19.16796875 C-2.72007812 19.14476562 -3.4909375 19.1215625 -4.28515625 19.09765625 C-4.28515625 16.78765625 -4.28515625 14.47765625 -4.28515625 12.09765625 C-3.62515625 12.09765625 -2.96515625 12.09765625 -2.28515625 12.09765625 C-2.05828125 12.73703125 -1.83140625 13.37640625 -1.59765625 14.03515625 C-0.43264729 16.36959286 -0.43264729 16.36959286 2.33984375 16.84765625 C3.12359375 16.93015625 3.90734375 17.01265625 4.71484375 17.09765625 C3.20934819 12.88226868 0.4216681 11.38484574 -3.28515625 9.09765625 C-3.61515625 8.76765625 -3.94515625 8.43765625 -4.28515625 8.09765625 C-3.43327033 0.14672095 -3.43327033 0.14672095 0 0 Z " fill="#ffffff" transform="translate(437.28515625,125.90234375)"/>
<path d="M0 0 C1.50433594 0.01353516 1.50433594 0.01353516 3.0390625 0.02734375 C3.80992187 0.03894531 4.58078125 0.05054687 5.375 0.0625 C5.375 2.3725 5.375 4.6825 5.375 7.0625 C4.715 7.0625 4.055 7.0625 3.375 7.0625 C2.75625 6.381875 2.1375 5.70125 1.5 5 C0.79875 4.360625 0.0975 3.72125 -0.625 3.0625 C-2.8185345 3.0478761 -2.8185345 3.0478761 -4.625 4.0625 C-5.82772819 6.46795638 -5.72571472 8.01246953 -5.6875 10.6875 C-5.67847656 11.50476563 -5.66945313 12.32203125 -5.66015625 13.1640625 C-5.64855469 13.79054687 -5.63695312 14.41703125 -5.625 15.0625 C-3.40723378 16.36764736 -3.40723378 16.36764736 -0.625 17.0625 C2.17667287 15.79916727 2.17667287 15.79916727 4.375 14.0625 C4.045 15.7125 3.715 17.3625 3.375 19.0625 C-0.23072704 20.26440901 -2.8352435 20.38920315 -6.625 20.0625 C-9.37829021 18.26687595 -11.15127461 17.00995078 -12.625 14.0625 C-13.32653846 6.93019231 -13.32653846 6.93019231 -10.25 3.125 C-6.48719045 0.16850678 -4.72603583 -0.0549539 0 0 Z " fill="#ffffff" transform="translate(482.625,125.9375)"/>
<path d="M0 0 C5.61 0 11.22 0 17 0 C17 1.98 17 3.96 17 6 C15 6 15 6 12.875 4 C12.25625 3.34 11.6375 2.68 11 2 C11.14058476 4.45873768 11.28722999 6.91685175 11.4375 9.375 C11.47681641 10.07367188 11.51613281 10.77234375 11.55664062 11.4921875 C11.74280134 15.37360492 11.74280134 15.37360492 13 19 C9.7 19 6.4 19 3 19 C3.33 18.34 3.66 17.68 4 17 C4.23172827 14.45384991 4.41894529 11.92603775 4.5625 9.375 C4.62727539 8.31539062 4.62727539 8.31539062 4.69335938 7.234375 C4.79944751 5.48981463 4.90022889 3.74493303 5 2 C3.35 3.32 1.7 4.64 0 6 C0 4.02 0 2.04 0 0 Z " fill="#ffffff" transform="translate(546,126)"/>
<path d="M0 0 C5.61 0 11.22 0 17 0 C17 1.98 17 3.96 17 6 C15 6 15 6 12.875 4 C12.25625 3.34 11.6375 2.68 11 2 C11.14058476 4.45873768 11.28722999 6.91685175 11.4375 9.375 C11.47681641 10.07367188 11.51613281 10.77234375 11.55664062 11.4921875 C11.74280134 15.37360492 11.74280134 15.37360492 13 19 C9.7 19 6.4 19 3 19 C3.33 18.34 3.66 17.68 4 17 C4.23172827 14.45384991 4.41894529 11.92603775 4.5625 9.375 C4.62727539 8.31539062 4.62727539 8.31539062 4.69335938 7.234375 C4.79944751 5.48981463 4.90022889 3.74493303 5 2 C3.35 3.32 1.7 4.64 0 6 C0 4.02 0 2.04 0 0 Z " fill="#ffffff" transform="translate(338,126)"/>
<path d="M0 0 C0.66 0 1.32 0 2 0 C2.48210938 1.12019531 2.96421875 2.24039063 3.4609375 3.39453125 C4.0988047 4.86725405 4.73683401 6.33990665 5.375 7.8125 C5.69210937 8.55048828 6.00921875 9.28847656 6.3359375 10.04882812 C6.6453125 10.76103516 6.9546875 11.47324219 7.2734375 12.20703125 C7.55622559 12.8616333 7.83901367 13.51623535 8.13037109 14.19067383 C9.07472913 16.26322799 9.07472913 16.26322799 11 19 C7.7 19 4.4 19 1 19 C1.66 18.67 2.32 18.34 3 18 C2.67 16.68 2.34 15.36 2 14 C0.02 14 -1.96 14 -4 14 C-4 15.32 -4 16.64 -4 18 C-3.34 18.33 -2.68 18.66 -2 19 C-4.31 19 -6.62 19 -9 19 C-6.03 12.73 -3.06 6.46 0 0 Z M-1 9 C-1.33 9.99 -1.66 10.98 -2 12 C-1.34 12 -0.68 12 0 12 C-0.33 11.01 -0.66 10.02 -1 9 Z " fill="#ffffff" transform="translate(579,126)"/>
<path d="M0 0 C3.63 0 7.26 0 11 0 C11 0.66 11 1.32 11 2 C10.01 2 9.02 2 8 2 C8.11369211 4.45933991 8.24042651 6.9167909 8.375 9.375 C8.4059375 10.07367188 8.436875 10.77234375 8.46875 11.4921875 C8.59499498 15.70185827 8.59499498 15.70185827 11 19 C7.37 19 3.74 19 0 19 C0.33 18.34 0.66 17.68 1 17 C1.66 17 2.32 17 3 17 C3 12.05 3 7.1 3 2 C2.01 2 1.02 2 0 2 C0 1.34 0 0.68 0 0 Z " fill="#ffffff" transform="translate(320,126)"/>
</svg>