<?xml version="1.0" encoding="UTF-8"?>
<svg version="1.1" xmlns="http://www.w3.org/2000/svg" width="512" height="512">
<path d="M0 0 C0.5067627 0.47953125 1.01352539 0.9590625 1.53564453 1.453125 C7.73731619 7.35841379 13.57522476 13.40111792 18.8125 20.1875 C19.23917969 20.74018555 19.66585937 21.29287109 20.10546875 21.86230469 C23 25.73058345 23 25.73058345 23 28 C23.66 28 24.32 28 25 28 C25.2475 27.45601563 25.495 26.91203125 25.75 26.3515625 C40.37941666 -1.17002759 71.32678348 -22.91863334 100.51538086 -32.15429688 C135.10204905 -42.49882388 170.78347029 -38.19690842 202.50170898 -21.16552734 C214.1481872 -14.65026527 224.31865571 -6.12719327 234 3 C234.72445313 3.66 235.44890625 4.32 236.1953125 5 C263.02893468 30.39095432 279.1682531 69.84229179 280.28959656 106.51445007 C280.36931429 110.44749758 280.38516095 114.3787411 280.375 118.3125 C280.37368576 119.56164688 280.37368576 119.56164688 280.37234497 120.83602905 C280.32275231 135.19370484 279.27169892 148.97608453 276 163 C275.76394043 164.01239746 275.52788086 165.02479492 275.28466797 166.06787109 C267.57238153 197.95626113 253.65769601 228.05078139 235 255 C234.59217285 255.59780273 234.1843457 256.19560547 233.76416016 256.81152344 C224.64443901 270.14796877 214.42433594 282.61804592 203.3984375 294.41796875 C201.45516894 296.50998913 199.5903059 298.63122372 197.75 300.8125 C190.25382281 309.45216185 181.93009719 317.78285356 173.18359375 325.15625 C171.36039994 326.69569092 169.56974727 328.26017482 167.78515625 329.84375 C159.17353225 337.45518 150.27033736 344.55455917 141.0703125 351.43994141 C139.12636171 352.90478168 137.20131269 354.39077247 135.28125 355.88671875 C106.53313303 378.12970405 74.46697861 396.21057645 42.125 412.625 C41.13274414 413.13417969 40.14048828 413.64335937 39.11816406 414.16796875 C36.43686716 415.51182121 33.74000091 416.78091824 31 418 C29.98631348 418.47131348 29.98631348 418.47131348 28.95214844 418.95214844 C24.50932373 420.58247989 21.67422713 419.77497705 17.328125 418.02734375 C15.20709596 417.04296021 13.09792739 416.03270316 11 415 C9.94490234 414.50258301 8.88980469 414.00516602 7.80273438 413.49267578 C4.43203013 411.88668787 1.08855642 410.23425261 -2.25 408.5625 C-3.15091873 408.11188202 -3.15091873 408.11188202 -4.07003784 407.65216064 C-34.56655433 392.3509858 -64.02216699 373.90964835 -91 353 C-91.54430664 352.58041016 -92.08861328 352.16082031 -92.64941406 351.72851562 C-104.00792916 342.96166172 -115.00826202 333.81902558 -125.62109375 324.16015625 C-127.18581506 322.73931735 -128.76113529 321.33004897 -130.34765625 319.93359375 C-140.52201895 310.95037595 -150.25226844 301.38440391 -159 291 C-159.88524476 289.9882917 -160.77211968 288.97800865 -161.66015625 287.96875 C-194.40207584 250.5794165 -218.4513779 206.73069867 -229 158 C-229.17934082 157.21109375 -229.35868164 156.4221875 -229.54345703 155.609375 C-234.61531148 132.56190136 -234.74487152 103.91754677 -229 81 C-228.80132324 80.17371094 -228.60264648 79.34742188 -228.39794922 78.49609375 C-218.47901746 38.13681486 -194.22430379 3.14553719 -158.6484375 -18.7265625 C-106.3178807 -49.67090034 -43.65744099 -41.51673437 0 0 Z M-177 14 C-177.89138672 14.79277344 -177.89138672 14.79277344 -178.80078125 15.6015625 C-201.15616978 36.4096807 -214.88256364 70.1045847 -218 100 C-218.12117187 100.92296875 -218.24234375 101.8459375 -218.3671875 102.796875 C-224.17058223 156.30134351 -201.7666324 210.42620746 -171 253 C-170.52449707 253.6609668 -170.04899414 254.32193359 -169.55908203 255.00292969 C-162.22792778 265.13868522 -154.38686855 274.72156725 -146 284 C-145.40815918 284.65500488 -144.81631836 285.31000977 -144.20654297 285.98486328 C-135.75669188 295.27992427 -126.94268699 304.06327976 -117.64257812 312.50585938 C-116.19544153 313.82222025 -114.76077477 315.15226206 -113.328125 316.484375 C-107.09852026 322.22538329 -100.4966025 327.41870445 -93.80126953 332.59716797 C-92.05287896 333.95881777 -90.31916696 335.33690058 -88.58984375 336.72265625 C-79.65520543 343.86702301 -70.41839344 350.5095229 -61 357 C-60.40171387 357.41572266 -59.80342773 357.83144531 -59.18701172 358.25976562 C-35.11719088 374.93871151 -9.27917306 389.13931979 17 402 C18.010625 402.60714844 19.02125 403.21429688 20.0625 403.83984375 C22.94830317 405.28837224 22.94830317 405.28837224 25.93359375 404.40234375 C29.34108081 402.84401527 32.72557339 401.26603738 36.0625 399.5625 C36.75093994 399.21324463 37.43937988 398.86398926 38.14868164 398.50415039 C39.64754992 397.74117776 41.14514489 396.97569966 42.64160156 396.20800781 C44.22212455 395.39843972 45.80484044 394.59313951 47.38964844 393.79199219 C67.68257604 383.52806434 87.32186533 371.98246908 106 359 C106.65838867 358.54592773 107.31677734 358.09185547 107.99511719 357.62402344 C130.4770954 342.09350229 153.21676545 325.43700441 172.2578125 305.7421875 C174.03337195 303.96662805 175.88968202 302.36393156 177.8125 300.75 C182.84675975 296.41521665 187.19974023 291.46236664 191.62402344 286.52441406 C192.91477501 285.09441888 194.22624474 283.6832018 195.5390625 282.2734375 C202.1366972 275.17312587 208.1631511 267.72838077 214 260 C214.41217773 259.45537109 214.82435547 258.91074219 215.24902344 258.34960938 C226.32995901 243.5809813 236.29023354 227.74101342 244.07617188 210.98779297 C244.70767695 209.62898897 245.3473972 208.2739808 245.99414062 206.92236328 C266.59237283 163.82558394 274.15461143 113.2748542 258.60473633 67.35693359 C246.03192529 32.68743409 220.80453201 2.87150521 187.21337891 -13.03710938 C157.71283295 -25.87079052 126.17571284 -27.71351088 96 -16 C69.25249648 -4.33031893 48.73444598 15.49996918 33.09375 39.78515625 C32.4028125 40.84605469 31.711875 41.90695313 31 43 C30.48953125 43.78503906 29.9790625 44.57007812 29.453125 45.37890625 C28 47 28 47 24.25 47.875 C21.29171038 47.71844818 20.285417 47.29472408 18.203125 45.14453125 C16.36117519 42.48722293 14.67760204 39.76376567 13 37 C-7.13207746 7.56944667 -34.21181904 -15.6197017 -70.10742188 -22.39794922 C-110.98137943 -29.18805447 -147.3453838 -13.51868907 -177 14 Z " fill="#DD0202" transform="translate(232,65)"/>
<path d="M0 0 C3.625 0.375 3.625 0.375 5.68746948 1.78308105 C8.5478965 5.60959884 9.23690448 9.60355363 10.25048828 14.22070312 C10.4819455 15.21947983 10.71340271 16.21825653 10.95187378 17.24729919 C11.7132369 20.54733584 12.45409988 23.85163464 13.1953125 27.15625 C13.72147318 29.45056144 14.24907089 31.74454375 14.77804565 34.03820801 C16.16740641 40.07712753 17.54013733 46.11969912 18.90856934 52.16339111 C21.10188163 61.83824341 23.3193259 71.50758192 25.53863144 81.17649841 C26.31181382 84.55659659 27.07735497 87.9383572 27.84182739 91.32043457 C28.31380852 93.39009564 28.78595724 95.45971849 29.25830078 97.52929688 C29.46924377 98.47175766 29.68018677 99.41421844 29.89752197 100.38523865 C30.09643036 101.25161453 30.29533875 102.11799042 30.50027466 103.01062012 C30.67022005 103.76129509 30.84016544 104.51197006 31.0152607 105.28539276 C31.65549946 107.47952317 32.54356958 109.36589423 33.625 111.375 C33.78929001 110.75969925 33.95358002 110.1443985 34.12284851 109.51045227 C35.83882509 103.09712987 37.57843021 96.69055491 39.33178711 90.28735352 C39.98270905 87.89804707 40.62762402 85.50709559 41.26635742 83.11450195 C42.18648392 79.67207066 43.12817927 76.23616877 44.07421875 72.80078125 C44.35464523 71.73289871 44.63507172 70.66501617 44.92399597 69.56477356 C46.518131 63.86590356 47.73385857 59.90619114 52.625 56.375 C56.1875 56.0625 56.1875 56.0625 59.625 57.375 C61.48019103 59.85431394 62.54507176 62.48836716 63.625 65.375 C64.28972371 67.04244253 64.95616708 68.70920147 65.625 70.375 C66.88454116 66.69069701 68.13178313 63.00234253 69.375 59.3125 C69.76969482 58.14195068 70.16438965 56.97140137 70.57104492 55.76538086 C73.09315742 48.22676497 75.47161707 40.65374393 77.75390625 33.0390625 C78.01813385 32.16171951 78.28236145 31.28437653 78.55459595 30.38044739 C79.87281638 26.00083841 81.17742122 21.61789022 82.46191406 17.22827148 C82.94932361 15.60123602 83.43725543 13.9743569 83.92578125 12.34765625 C84.13908585 11.60081573 84.35239044 10.85397522 84.57215881 10.08450317 C85.84596986 5.89726276 87.07330605 3.02578882 90.625 0.375 C94.1875 -0.125 94.1875 -0.125 97.625 0.375 C100.58718129 3.39244077 101.30201568 6.37406997 102.1237793 10.45239258 C102.3782785 11.68886032 102.63277771 12.92532806 102.89498901 14.19926453 C103.16326318 15.55598105 103.43133385 16.91273782 103.69921875 18.26953125 C103.98639471 19.6838877 104.27451005 21.09805371 104.56350708 22.51203918 C105.33291726 26.28918004 106.08970683 30.06874838 106.8442421 33.84888458 C107.62293944 37.73792436 108.413838 41.62447782 109.20385742 45.51123047 C110.45000848 51.64873528 111.69025562 57.7873972 112.92480469 63.92724609 C114.9107626 73.80349735 116.91643061 83.6756683 118.93643188 93.54501343 C119.42856071 95.95620188 119.91621506 98.36826068 120.40307617 100.78051758 C120.69178847 102.20005413 120.98059927 103.61957065 121.26953125 105.0390625 C121.51034424 106.22967285 121.75115723 107.4202832 121.99926758 108.64697266 C122.49970269 111.32101413 122.49970269 111.32101413 123.625 113.375 C123.91165527 112.40675293 123.91165527 112.40675293 124.20410156 111.41894531 C125.08124799 108.48351303 125.97787573 105.55438537 126.875 102.625 C127.17535156 101.60921875 127.47570312 100.5934375 127.78515625 99.546875 C128.23955078 98.07734375 128.23955078 98.07734375 128.703125 96.578125 C128.97543945 95.67739258 129.24775391 94.77666016 129.52832031 93.84863281 C130.83956662 90.89103094 132.11695222 89.4225014 134.625 87.375 C137.35693359 86.86706543 137.35693359 86.86706543 140.5234375 86.85742188 C141.71146973 86.84481323 142.89950195 86.83220459 144.12353516 86.81921387 C145.40276855 86.82731079 146.68200195 86.83540771 148 86.84375 C149.31661621 86.8399231 150.63323242 86.83609619 151.98974609 86.83215332 C154.77395434 86.82626276 157.55764849 86.83480586 160.34179688 86.85351562 C163.90649333 86.87630624 167.46998518 86.8631806 171.03463745 86.83922577 C174.4398543 86.8212767 177.84474894 86.83385223 181.25 86.84375 C183.1688501 86.83160461 183.1688501 86.83160461 185.12646484 86.81921387 C186.90851318 86.83812683 186.90851318 86.83812683 188.7265625 86.85742188 C190.29398193 86.86219543 190.29398193 86.86219543 191.89306641 86.86706543 C195.32756457 87.50562427 196.51412308 88.63876417 198.625 91.375 C199.125 94.375 199.125 94.375 198.625 97.375 C196.60124147 99.93848544 195.41516056 101.22018943 192.16986084 101.85601807 C190.79752289 101.8426944 190.79752289 101.8426944 189.39746094 101.82910156 C188.35668396 101.82879944 187.31590698 101.82849731 186.24359131 101.82818604 C184.56840424 101.79721832 184.56840424 101.79721832 182.859375 101.765625 C181.71084045 101.75996521 180.56230591 101.75430542 179.37896729 101.74847412 C175.71055426 101.72608331 172.04311783 101.67587942 168.375 101.625 C165.88803494 101.60493861 163.40105457 101.58668722 160.9140625 101.5703125 C154.81737511 101.52620955 148.72125733 101.45926949 142.625 101.375 C142.44147476 102.06605331 142.25794952 102.75710663 142.06886292 103.46910095 C140.46062097 109.45570335 138.73200661 115.37184583 136.77734375 121.25390625 C136.5199794 122.0326561 136.26261505 122.81140594 135.99745178 123.61375427 C135.46038536 125.23496169 134.92175907 126.85565318 134.3815918 128.47583008 C133.55448513 130.9615876 132.73708448 133.45041143 131.91992188 135.93945312 C131.39381479 137.52363211 130.86714305 139.1076237 130.33984375 140.69140625 C130.09709213 141.43403214 129.85434052 142.17665802 129.60423279 142.94178772 C127.85387123 148.14612877 127.85387123 148.14612877 125.625 150.375 C119.94151376 150.9162844 119.94151376 150.9162844 117.625 150.375 C114.89565592 147.38580358 114.02617321 144.76486901 113.23388672 140.8359375 C113.00259567 139.71549545 112.77130463 138.59505341 112.53300476 137.44065857 C112.29266006 136.22274124 112.05231537 135.00482391 111.8046875 133.75 C111.54440262 132.47475967 111.28411774 131.19951935 111.01594543 129.88563538 C110.31113307 126.43193068 109.6190128 122.97579443 108.92922592 119.51906204 C108.21405178 115.94663631 107.48706528 112.37661882 106.76098633 108.80639648 C105.59457539 103.06461326 104.43437384 97.32161202 103.27880859 91.57763672 C101.79114499 84.18530186 100.2852614 76.79679155 98.76953125 69.41015625 C98.55603027 68.36967133 98.3425293 67.3291864 98.12255859 66.25717163 C97.7143633 64.26835745 97.30610183 62.27955684 96.89776611 60.29077148 C95.97446109 55.78950301 95.05534125 51.28738231 94.13671875 46.78515625 C93.90333549 45.6414431 93.90333549 45.6414431 93.66523743 44.47462463 C93.31841696 42.77476499 92.9716952 41.0748852 92.625 39.375 C90.71545811 42.23931283 89.89242716 44.33705628 88.90087891 47.59326172 C88.40994247 49.19039505 88.40994247 49.19039505 87.90908813 50.8197937 C87.38561295 52.54481613 87.38561295 52.54481613 86.8515625 54.3046875 C86.10191956 56.73318316 85.35190807 59.16156509 84.6015625 61.58984375 C83.4231768 65.42229999 82.24765848 69.25554885 81.08007812 73.09130859 C79.95122576 76.79053685 78.80859888 80.48528678 77.6640625 84.1796875 C77.3191275 85.32565399 76.9741925 86.47162048 76.61880493 87.65231323 C76.28520966 88.72337311 75.95161438 89.79443298 75.60791016 90.89794922 C75.32082184 91.83710175 75.03373352 92.77625427 74.73794556 93.74386597 C73.44263727 96.80612691 71.90068095 98.95675876 69.625 101.375 C66.12782531 102.03072025 64.46053555 101.94021522 61.5 99.9375 C59.74838702 97.54362892 58.68160486 95.42041079 57.5078125 92.71484375 C57.15348145 91.90265381 56.79915039 91.09046387 56.43408203 90.25366211 C56.16708496 89.63370361 55.90008789 89.01374512 55.625 88.375 C55.33098801 89.43282684 55.33098801 89.43282684 55.03103638 90.51202393 C53.18151114 97.16361965 51.32805633 103.8141091 49.47020149 110.46338272 C48.51524017 113.88172805 47.56179363 117.30048074 46.61181641 120.72021484 C45.51916557 124.65328792 44.41991514 128.58448978 43.3203125 132.515625 C42.81082565 134.35486542 42.81082565 134.35486542 42.29104614 136.23126221 C41.97086517 137.37214294 41.6506842 138.51302368 41.32080078 139.68847656 C41.04100372 140.69219299 40.76120667 141.69590942 40.47293091 142.7300415 C39.70500598 145.12543662 38.91322766 147.21690713 37.625 149.375 C34.57516004 150.89991998 31.9826631 150.61062548 28.625 150.375 C24.87667813 147.45510763 24.40041355 143.46788393 23.40429688 139.0390625 C23.20385269 138.18822586 23.00340851 137.33738922 22.79689026 136.46076965 C22.13563628 133.64278892 21.48976613 130.82150936 20.84375 128 C20.38540507 126.03500279 19.92603947 124.07024339 19.46569824 122.10571289 C18.25402817 116.92369363 17.05506934 111.73881696 15.85906982 106.55316162 C14.41179607 100.28717745 12.95132272 94.02426066 11.49106598 87.7612915 C10.35291892 82.87977991 9.21726287 77.99774289 8.08972168 73.11376953 C6.09337295 64.48791945 4.08595237 55.88340898 1.625 47.375 C1.44152008 48.55184357 1.25804016 49.72868713 1.06900024 50.94119263 C-0.66148848 62.03614713 -2.39741145 73.13023952 -4.13864708 84.22351265 C-5.03364014 89.92658033 -5.92672145 95.62993367 -6.81542969 101.33398438 C-7.67328063 106.83951876 -8.53615855 112.34424384 -9.40251541 117.84844589 C-9.73202997 119.94768148 -10.05973762 122.04720153 -10.38560104 124.14700699 C-10.84260723 127.08982817 -11.30604928 130.03156898 -11.77099609 132.97314453 C-11.97060188 134.27326729 -11.97060188 134.27326729 -12.17424011 135.59965515 C-13.99371816 146.99371816 -13.99371816 146.99371816 -17.375 150.375 C-23.46502591 151.05166955 -23.46502591 151.05166955 -26.46516418 148.82072449 C-28.89063936 145.71467528 -29.69247485 142.6339673 -30.55737305 138.8684082 C-30.7416687 138.11840546 -30.92596436 137.36840271 -31.11584473 136.59567261 C-31.71947192 134.125399 -32.3029952 131.65082628 -32.88671875 129.17578125 C-33.30324671 127.45720845 -33.72113822 125.73896561 -34.14033508 124.02104187 C-35.23891822 119.5050556 -36.32099343 114.98528035 -37.39904785 110.46435547 C-39.1307785 103.21625817 -40.88919087 95.97457223 -42.64441872 88.73213768 C-43.25644177 86.19763423 -43.86250193 83.66176422 -44.467453 81.12556458 C-44.83850509 79.58149633 -45.20962075 78.03744335 -45.58081055 76.4934082 C-45.74859512 75.78328079 -45.9163797 75.07315338 -46.08924866 74.34150696 C-46.67808272 71.0838078 -46.67808272 71.0838078 -48.375 68.375 C-48.53581055 69.19701904 -48.69662109 70.01903809 -48.86230469 70.8659668 C-49.46966094 73.93415556 -50.0898812 76.99938663 -50.71875 80.06323242 C-51.11927189 82.03431038 -51.50505911 84.00836386 -51.890625 85.98242188 C-52.1484375 87.22958984 -52.40625 88.47675781 -52.671875 89.76171875 C-52.90229492 90.90858154 -53.13271484 92.05544434 -53.37011719 93.23706055 C-54.5281953 96.85338173 -55.6722557 98.70571794 -58.375 101.375 C-61.55577087 102.00991821 -61.55577087 102.00991821 -65.35913086 102.02197266 C-66.05394058 102.03073425 -66.74875031 102.03949585 -67.46461487 102.04852295 C-69.75699685 102.07049486 -72.04744283 102.05597318 -74.33984375 102.0390625 C-75.93641021 102.04243172 -77.53297417 102.04728523 -79.12953186 102.05355835 C-82.47454261 102.06092691 -85.81888534 102.05022704 -89.16381836 102.02685547 C-93.44598391 101.99838971 -97.72658112 102.01475617 -102.00868893 102.04471779 C-105.30566662 102.06281159 -108.60227436 102.05702304 -111.89926338 102.04407883 C-113.47767893 102.04074931 -115.05612834 102.04481596 -116.63450432 102.05647659 C-118.84439485 102.06921845 -121.0517708 102.04976707 -123.26147461 102.02197266 C-124.517379 102.01799469 -125.77328339 102.01401672 -127.06724548 102.00991821 C-131.2669417 101.20379321 -132.78373236 99.7156787 -135.375 96.375 C-135.4375 93.25 -135.4375 93.25 -134.375 90.375 C-131.1361698 87.18236048 -128.59177125 86.98716771 -124.13769531 86.94262695 C-122.87669006 86.92283279 -121.61568481 86.90303864 -120.31646729 86.88264465 C-118.94535471 86.87587541 -117.57424051 86.86942848 -116.203125 86.86328125 C-114.79635043 86.84643099 -113.38959089 86.82828027 -111.98284912 86.80888367 C-108.28725886 86.76141461 -104.59172952 86.73158559 -100.89593506 86.70544434 C-97.12190724 86.67562295 -93.34808926 86.62909811 -89.57421875 86.58398438 C-82.17458336 86.49798663 -74.77493265 86.43062603 -67.375 86.375 C-67.16614922 85.33596527 -67.16614922 85.33596527 -66.95307922 84.27593994 C-65.6354268 77.73902275 -64.29859383 71.20635765 -62.94024372 64.67776871 C-62.24261652 61.32140906 -61.55241991 57.96387674 -60.87915039 54.60253906 C-60.10426189 50.73555717 -59.29714221 46.87565006 -58.48828125 43.015625 C-58.13326286 41.20919525 -58.13326286 41.20919525 -57.77107239 39.36627197 C-57.53120102 38.24541199 -57.29132965 37.124552 -57.04418945 35.96972656 C-56.8421138 34.98377502 -56.64003815 33.99782349 -56.43183899 32.98199463 C-55.07131096 29.62586442 -53.40217662 28.30315978 -50.375 26.375 C-47.25 26.375 -47.25 26.375 -44.375 27.375 C-41.47866544 30.46757158 -40.59806098 33.50908872 -39.59741211 37.57714844 C-39.28376205 38.83235291 -38.970112 40.08755737 -38.6469574 41.38079834 C-38.31522545 42.74861017 -37.98369252 44.11647029 -37.65234375 45.484375 C-37.30352462 46.89459336 -36.95386631 48.3046044 -36.60340881 49.7144165 C-35.683462 53.42470079 -34.77483943 57.13766792 -33.86859131 60.85131836 C-32.94972531 64.60827106 -32.02036987 68.36262453 -31.09179688 72.1171875 C-29.72986307 77.6284902 -28.37364858 83.1411464 -27.02319336 88.65527344 C-25.82060141 93.5653187 -24.60763037 98.4724135 -23.375 103.375 C-23.045 103.375 -22.715 103.375 -22.375 103.375 C-22.09978012 101.60973465 -22.09978012 101.60973465 -21.81900024 99.80880737 C-20.08851152 88.71385287 -18.35258855 77.61976048 -16.61135292 66.52648735 C-15.71635986 60.82341967 -14.82327855 55.12006633 -13.93457031 49.41601562 C-13.07671937 43.91048124 -12.21384145 38.40575616 -11.34748459 32.90155411 C-11.01797003 30.80231852 -10.69026238 28.70279847 -10.36439896 26.60299301 C-9.90739277 23.66017183 -9.44395072 20.71843102 -8.97900391 17.77685547 C-8.77939812 16.47673271 -8.77939812 16.47673271 -8.57575989 15.15034485 C-6.2676611 0.69640679 -6.2676611 0.69640679 0 0 Z " fill="#DD0202" transform="translate(221.375,149.625)"/>
</svg>
