<?xml version="1.0" encoding="UTF-8"?>
<svg version="1.1" xmlns="http://www.w3.org/2000/svg" width="512" height="512">
<path d="M0 0 C0.74093399 -0.00902847 1.48186798 -0.01805695 2.24525452 -0.02735901 C3.81116702 -0.04185486 5.37714 -0.05074661 6.94311523 -0.05444336 C9.33616234 -0.06634907 11.72663711 -0.11554087 14.11914062 -0.16601562 C15.64191452 -0.17547932 17.16470422 -0.18271462 18.6875 -0.1875 C19.40115219 -0.20703232 20.11480438 -0.22656464 20.8500824 -0.24668884 C22.88256836 -0.22827148 22.88256836 -0.22827148 26.41015625 0.37109375 C36.02495965 12.389598 30.41015625 30.97989858 30.41015625 46.37109375 C69.68015625 46.37109375 108.95015625 46.37109375 149.41015625 46.37109375 C149.41015625 32.51109375 149.41015625 18.65109375 149.41015625 4.37109375 C153.87008745 -0.08883745 153.87008745 -0.08883745 158.94458008 -0.18469238 C159.65509521 -0.17659546 160.36561035 -0.16849854 161.09765625 -0.16015625 C161.83717529 -0.16398315 162.57669434 -0.16781006 163.33862305 -0.17175293 C164.89861415 -0.17446896 166.45865103 -0.16712917 168.01855469 -0.15039062 C170.40272811 -0.12897298 172.78388874 -0.15019888 175.16796875 -0.17578125 C176.68620455 -0.17313791 178.20443848 -0.16801281 179.72265625 -0.16015625 C180.78842896 -0.17230164 180.78842896 -0.17230164 181.87573242 -0.18469238 C185.23658038 -0.12120745 187.12100959 0.16035584 189.86621094 2.16113281 C192.18087867 5.47428466 191.83826627 8.74377566 191.66015625 12.62109375 C191.64210938 13.36617187 191.6240625 14.11125 191.60546875 14.87890625 C191.55851274 16.71019076 191.48677277 18.54081024 191.41015625 20.37109375 C192.57933594 20.33628906 193.74851562 20.30148438 194.953125 20.265625 C196.50128766 20.23747659 198.04946593 20.21017756 199.59765625 20.18359375 C200.36658203 20.15845703 201.13550781 20.13332031 201.92773438 20.10742188 C206.56662823 20.04769363 209.68820967 20.27067611 213.41015625 23.37109375 C214.71221573 27.27727219 214.58241142 31.00460234 214.60302734 35.07763672 C214.61529358 36.41223938 214.61529358 36.41223938 214.62780762 37.77380371 C214.65263568 40.72028938 214.66916909 43.66672704 214.68359375 46.61328125 C214.68891743 47.61928501 214.6942411 48.62528877 214.6997261 49.6617775 C214.72644364 54.98430876 214.74582492 60.30681665 214.76025391 65.62939453 C214.77691826 71.12985145 214.82171516 76.62971114 214.87262535 82.12994194 C214.90625308 86.35756125 214.91782629 90.58503781 214.92348099 94.81277847 C214.93020346 96.84060365 214.94545127 98.86841912 214.9693718 100.89611435 C215.00093653 103.73316203 215.00107348 106.56858507 214.99365234 109.40576172 C215.01005768 110.24334015 215.02646301 111.08091858 215.04336548 111.94387817 C214.99697811 116.2747514 214.79891256 117.8806562 212.01243591 121.39595032 C209.30557624 123.45047051 208.30391246 123.97878282 204.984375 123.859375 C204.18837891 123.84326172 203.39238281 123.82714844 202.57226562 123.81054688 C201.75564453 123.76865234 200.93902344 123.72675781 200.09765625 123.68359375 C199.26169922 123.66103516 198.42574219 123.63847656 197.56445312 123.61523438 C195.51224476 123.55659985 193.46096423 123.4669259 191.41015625 123.37109375 C191.4565625 124.4796875 191.50296875 125.58828125 191.55078125 126.73046875 C191.58830727 128.19398343 191.62470654 129.65752731 191.66015625 131.12109375 C191.69367188 131.85070312 191.7271875 132.5803125 191.76171875 133.33203125 C191.82147414 136.61857768 191.77798203 138.83860144 189.88208008 141.58325195 C186.4979211 144.03087627 183.49033731 143.92861079 179.46875 143.8671875 C178.70466324 143.86864273 177.94057648 143.87009796 177.15333557 143.87159729 C175.54204485 143.86994082 173.9307379 143.85840758 172.31958008 143.83764648 C169.85234525 143.80864886 167.38725441 143.81704947 164.91992188 143.83007812 C163.35285414 143.82384161 161.78579318 143.81545134 160.21875 143.8046875 C159.4811998 143.80762314 158.7436496 143.81055878 157.98374939 143.81358337 C153.58169858 143.73237733 152.676394 143.6373315 149.41015625 140.37109375 C149.41015625 126.18109375 149.41015625 111.99109375 149.41015625 97.37109375 C110.14015625 97.37109375 70.87015625 97.37109375 30.41015625 97.37109375 C30.41015625 111.23109375 30.41015625 125.09109375 30.41015625 139.37109375 C26.39161045 143.38963955 25.94843208 143.82991857 20.69761658 143.90122986 C19.59432762 143.88437889 19.59432762 143.88437889 18.46875 143.8671875 C17.32261986 143.86937035 17.32261986 143.86937035 16.15333557 143.87159729 C14.54204485 143.86994082 12.9307379 143.85840758 11.31958008 143.83764648 C8.85234525 143.80864886 6.38725441 143.81704947 3.91992188 143.83007812 C2.35285414 143.82384161 0.78579318 143.81545134 -0.78125 143.8046875 C-1.5188002 143.80762314 -2.2563504 143.81055878 -3.01625061 143.81358337 C-8.08830144 143.72001763 -8.08830144 143.72001763 -10.51538086 142.03149414 C-12.99323476 138.20239066 -12.69291294 134.605636 -12.65234375 130.18359375 C-12.64332031 128.91128906 -12.63429688 127.63898438 -12.625 126.328125 C-12.61339844 125.35230469 -12.60179687 124.37648438 -12.58984375 123.37109375 C-13.75902344 123.4175 -14.92820312 123.46390625 -16.1328125 123.51171875 C-17.68096395 123.54924969 -19.22914314 123.58564844 -20.77734375 123.62109375 C-21.54626953 123.65460938 -22.31519531 123.688125 -23.10742188 123.72265625 C-23.85830078 123.73554687 -24.60917969 123.7484375 -25.3828125 123.76171875 C-26.06883545 123.78266602 -26.7548584 123.80361328 -27.46166992 123.82519531 C-30.79272545 123.11442747 -32.24567442 121.84841008 -34.58984375 119.37109375 C-35.33640935 116.33548047 -35.25257689 113.35679687 -35.20507812 110.24389648 C-35.21062714 109.32154205 -35.21617615 108.39918762 -35.22189331 107.44888306 C-35.23370374 104.40028934 -35.20940182 101.35317722 -35.18359375 98.3046875 C-35.18188311 96.18766854 -35.18194785 94.07064746 -35.18371582 91.95362854 C-35.18206183 87.51746348 -35.16334746 83.08180331 -35.13183594 78.64575195 C-35.0921341 72.95352672 -35.087793 67.26196232 -35.09529877 61.5696249 C-35.09836491 57.19877546 -35.08626099 52.82807519 -35.06916809 48.45726204 C-35.06212697 46.35806272 -35.0590149 44.2588465 -35.05986023 42.15963554 C-35.05806689 39.22907691 -35.03672551 36.29931735 -35.00976562 33.36889648 C-35.01269623 32.49764633 -35.01562683 31.62639618 -35.01864624 30.72874451 C-34.9343599 24.80491773 -34.9343599 24.80491773 -33.25269318 22.68731785 C-29.42166741 19.65487946 -25.02441755 20.25611606 -20.40234375 20.30859375 C-19.65275391 20.31310547 -18.90316406 20.31761719 -18.13085938 20.32226562 C-16.28381992 20.33403021 -14.43682162 20.3519651 -12.58984375 20.37109375 C-12.61304688 19.49066406 -12.63625 18.61023438 -12.66015625 17.703125 C-12.68722656 15.96095703 -12.68722656 15.96095703 -12.71484375 14.18359375 C-12.73804688 13.03503906 -12.76125 11.88648438 -12.78515625 10.703125 C-12.59137967 7.3972966 -12.1477688 5.27543747 -10.58984375 2.37109375 C-6.95900585 -0.04946485 -4.20378079 0.03149974 0 0 Z M1.41015625 14.37109375 C1.41015625 52.32109375 1.41015625 90.27109375 1.41015625 129.37109375 C6.36015625 129.37109375 11.31015625 129.37109375 16.41015625 129.37109375 C16.41015625 91.42109375 16.41015625 53.47109375 16.41015625 14.37109375 C11.46015625 14.37109375 6.51015625 14.37109375 1.41015625 14.37109375 Z M163.41015625 14.37109375 C163.41015625 52.32109375 163.41015625 90.27109375 163.41015625 129.37109375 C168.03015625 129.37109375 172.65015625 129.37109375 177.41015625 129.37109375 C177.41015625 91.42109375 177.41015625 53.47109375 177.41015625 14.37109375 C172.79015625 14.37109375 168.17015625 14.37109375 163.41015625 14.37109375 Z M-20.58984375 34.37109375 C-20.58984375 59.12109375 -20.58984375 83.87109375 -20.58984375 109.37109375 C-17.94984375 109.37109375 -15.30984375 109.37109375 -12.58984375 109.37109375 C-12.58984375 84.62109375 -12.58984375 59.87109375 -12.58984375 34.37109375 C-15.22984375 34.37109375 -17.86984375 34.37109375 -20.58984375 34.37109375 Z M191.41015625 34.37109375 C191.41015625 59.12109375 191.41015625 83.87109375 191.41015625 109.37109375 C194.38015625 109.37109375 197.35015625 109.37109375 200.41015625 109.37109375 C200.41015625 84.62109375 200.41015625 59.87109375 200.41015625 34.37109375 C197.44015625 34.37109375 194.47015625 34.37109375 191.41015625 34.37109375 Z M30.41015625 60.37109375 C30.41015625 67.96109375 30.41015625 75.55109375 30.41015625 83.37109375 C69.68015625 83.37109375 108.95015625 83.37109375 149.41015625 83.37109375 C149.41015625 75.78109375 149.41015625 68.19109375 149.41015625 60.37109375 C110.14015625 60.37109375 70.87015625 60.37109375 30.41015625 60.37109375 Z " fill="#DD0202" transform="translate(296.58984375,-0.37109375)"/>
<path d="M0 0 C0.73951904 -0.00145523 1.47903809 -0.00291046 2.2409668 -0.00440979 C3.80098418 -0.00275339 5.36101834 0.0087791 6.92089844 0.02954102 C9.30474465 0.05849954 11.68636597 0.05014581 14.0703125 0.03710938 C15.58855244 0.04334726 17.10678538 0.05173861 18.625 0.0625 C19.33551514 0.05956436 20.04603027 0.05662872 20.77807617 0.05360413 C25.36998858 0.14086293 26.42131986 0.57770864 30.3125 3.49609375 C30.3125 17.68609375 30.3125 31.87609375 30.3125 46.49609375 C69.5825 46.49609375 108.8525 46.49609375 149.3125 46.49609375 C149.3125 32.96609375 149.3125 19.43609375 149.3125 5.49609375 C154.88747635 -0.0788826 154.88747635 -0.0788826 159.78210449 -0.19863892 C160.46244751 -0.18851776 161.14279053 -0.17839661 161.84375 -0.16796875 C162.55728638 -0.17275238 163.27082275 -0.17753601 164.00598145 -0.1824646 C165.50873022 -0.18585435 167.01155366 -0.17671633 168.51416016 -0.15576172 C170.80669475 -0.12897408 173.09433534 -0.15553156 175.38671875 -0.1875 C176.85157324 -0.18419573 178.3164247 -0.17778911 179.78125 -0.16796875 C180.80176453 -0.18315048 180.80176453 -0.18315048 181.84289551 -0.19863892 C185.61771761 -0.10628077 187.24894616 0.44625019 190.25268555 2.80200195 C192.92505028 6.29726624 192.88677387 9.10007544 192.625 13.30859375 C192.59116211 14.34790039 192.59116211 14.34790039 192.55664062 15.40820312 C192.49812661 17.10510948 192.4084548 18.80089236 192.3125 20.49609375 C193.40949219 20.46128906 194.50648438 20.42648438 195.63671875 20.390625 C197.09113045 20.3624751 198.5455588 20.33517623 200 20.30859375 C200.72123047 20.28345703 201.44246094 20.25832031 202.18554688 20.23242188 C206.79337064 20.169301 209.62601222 20.69774643 213.3125 23.49609375 C215.42595732 25.60955107 214.48055582 30.34422446 214.48950195 33.2668457 C214.49607315 34.18715576 214.50264435 35.10746582 214.50941467 36.05566406 C214.52919971 39.1152351 214.54082177 42.17475694 214.55078125 45.234375 C214.55485678 46.27655874 214.5589323 47.31874249 214.56313133 48.39250755 C214.58401423 53.90839822 214.59830635 59.42426385 214.60766602 64.94018555 C214.61873551 70.64696432 214.65313547 76.3533537 214.69283772 82.0599947 C214.71894487 86.43941488 214.7273526 90.81874148 214.73094749 95.19823265 C214.73582869 97.30222389 214.74748597 99.40621054 214.76598549 101.51012611 C214.79025152 104.45278651 214.78943481 107.39442905 214.7824707 110.3371582 C214.80168579 111.64571022 214.80168579 111.64571022 214.82128906 112.98069763 C214.77028029 118.88240115 214.77028029 118.88240115 212.41477966 122.04014587 C210.01663155 123.70099943 208.87117564 123.96919877 205.984375 123.88671875 C205.18515625 123.87382813 204.3859375 123.8609375 203.5625 123.84765625 C202.7375 123.81414062 201.9125 123.780625 201.0625 123.74609375 C200.22203125 123.72804688 199.3815625 123.71 198.515625 123.69140625 C196.44742605 123.64440173 194.37981559 123.57266099 192.3125 123.49609375 C192.35890625 124.52089844 192.4053125 125.54570313 192.453125 126.6015625 C192.49066011 127.96221031 192.52705841 129.3228898 192.5625 130.68359375 C192.61277344 131.69389648 192.61277344 131.69389648 192.6640625 132.72460938 C192.72958264 136.08251654 192.44920425 138.25542186 190.78222656 141.19018555 C187.47906068 144.27425057 184.70875198 144.21961412 180.40625 144.16015625 C179.26367737 144.1673317 179.26367737 144.1673317 178.09802246 144.1746521 C176.49094573 144.17804768 174.88379962 144.16886878 173.27685547 144.14794922 C170.81971955 144.12117243 168.36715045 144.1477018 165.91015625 144.1796875 C164.34634411 144.17638333 162.7825348 144.16997694 161.21875 144.16015625 C160.48636108 144.1702774 159.75397217 144.18039856 158.99938965 144.19082642 C156.91601562 144.14306641 156.91601562 144.14306641 153.3125 143.49609375 C143.6976966 131.4775895 149.3125 112.88728892 149.3125 97.49609375 C110.0425 97.49609375 70.7725 97.49609375 30.3125 97.49609375 C30.3125 111.68609375 30.3125 125.87609375 30.3125 140.49609375 C27.04626225 143.7623315 26.14095767 143.85737733 21.73890686 143.93858337 C21.00135666 143.93564774 20.26380646 143.9327121 19.50390625 143.9296875 C18.3592112 143.93755028 18.3592112 143.93755028 17.19139099 143.9455719 C15.57837134 143.95199129 13.96530486 143.95065611 12.35229492 143.94213867 C9.8870074 143.93363517 7.42404251 143.96237632 4.95898438 143.99414062 C3.39062569 143.99575296 1.82226292 143.99517449 0.25390625 143.9921875 C-0.48161972 144.00342148 -1.21714569 144.01465546 -1.97496033 144.02622986 C-5.39518224 143.97977985 -7.35657129 143.73544101 -10.15942383 141.70825195 C-12.45171521 138.38975824 -12.11534434 135.11762817 -11.9375 131.24609375 C-11.91042969 130.12847656 -11.91042969 130.12847656 -11.8828125 128.98828125 C-11.83585649 127.15699674 -11.76411652 125.32637726 -11.6875 123.49609375 C-12.94046875 123.53089844 -14.1934375 123.56570312 -15.484375 123.6015625 C-17.13540324 123.62970503 -18.78644601 123.65700469 -20.4375 123.68359375 C-21.2625 123.70873047 -22.0875 123.73386719 -22.9375 123.75976562 C-23.73671875 123.76943359 -24.5359375 123.77910156 -25.359375 123.7890625 C-26.0925293 123.80477295 -26.82568359 123.8204834 -27.58105469 123.83666992 C-30.55750521 123.35542879 -31.61321269 122.73601914 -33.6875 120.49609375 C-34.31788457 117.44262811 -34.24370062 114.40724162 -34.22094727 111.29882812 C-34.22956284 110.35711258 -34.23817841 109.41539703 -34.24705505 108.44514465 C-34.2697931 105.32643295 -34.26296204 102.20861404 -34.25390625 99.08984375 C-34.25913815 96.92655163 -34.26541303 94.7632618 -34.27268982 92.59997559 C-34.28310838 88.06377435 -34.27851125 83.52788653 -34.26391602 78.99169922 C-34.24672168 73.1703473 -34.27022448 67.34998175 -34.30540562 61.52873993 C-34.32733494 57.06094791 -34.32594902 52.59339356 -34.3176403 48.12556458 C-34.31681842 45.97889626 -34.32372679 43.8322109 -34.33841133 41.68559265 C-34.35577559 38.68755926 -34.34138249 35.69131958 -34.31860352 32.69335938 C-34.33029572 31.8018367 -34.34198792 30.91031403 -34.35403442 29.99177551 C-34.31872588 27.71498582 -34.25136877 25.70206588 -33.6875 23.49609375 C-30.69779601 20.94481321 -28.37614794 20.11391097 -24.48046875 20.203125 C-23.72958984 20.21279297 -22.97871094 20.22246094 -22.20507812 20.23242188 C-21.43615234 20.25755859 -20.66722656 20.28269531 -19.875 20.30859375 C-19.08673828 20.32212891 -18.29847656 20.33566406 -17.48632812 20.34960938 C-15.55308831 20.38475919 -13.62020318 20.43856014 -11.6875 20.49609375 C-11.73390625 19.3875 -11.7803125 18.27890625 -11.828125 17.13671875 C-11.86565102 15.67320407 -11.90205029 14.20966019 -11.9375 12.74609375 C-11.97101562 12.01648437 -12.00453125 11.286875 -12.0390625 10.53515625 C-12.09900068 7.23855635 -12.05905095 5.02845036 -10.14355469 2.28393555 C-6.82966135 -0.1283548 -3.94622237 -0.06239385 0 0 Z M2.3125 14.49609375 C2.3125 52.44609375 2.3125 90.39609375 2.3125 129.49609375 C7.2625 129.49609375 12.2125 129.49609375 17.3125 129.49609375 C17.3125 91.54609375 17.3125 53.59609375 17.3125 14.49609375 C12.3625 14.49609375 7.4125 14.49609375 2.3125 14.49609375 Z M163.3125 14.49609375 C163.3125 52.44609375 163.3125 90.39609375 163.3125 129.49609375 C168.2625 129.49609375 173.2125 129.49609375 178.3125 129.49609375 C178.3125 91.54609375 178.3125 53.59609375 178.3125 14.49609375 C173.3625 14.49609375 168.4125 14.49609375 163.3125 14.49609375 Z M-20.6875 34.49609375 C-20.6875 59.24609375 -20.6875 83.99609375 -20.6875 109.49609375 C-17.7175 109.49609375 -14.7475 109.49609375 -11.6875 109.49609375 C-11.6875 84.74609375 -11.6875 59.99609375 -11.6875 34.49609375 C-14.6575 34.49609375 -17.6275 34.49609375 -20.6875 34.49609375 Z M192.3125 34.49609375 C192.3125 59.24609375 192.3125 83.99609375 192.3125 109.49609375 C194.9525 109.49609375 197.5925 109.49609375 200.3125 109.49609375 C200.3125 84.74609375 200.3125 59.99609375 200.3125 34.49609375 C197.6725 34.49609375 195.0325 34.49609375 192.3125 34.49609375 Z M30.3125 60.49609375 C30.3125 68.08609375 30.3125 75.67609375 30.3125 83.49609375 C69.5825 83.49609375 108.8525 83.49609375 149.3125 83.49609375 C149.3125 75.90609375 149.3125 68.31609375 149.3125 60.49609375 C110.0425 60.49609375 70.7725 60.49609375 30.3125 60.49609375 Z " fill="#DC0202" transform="translate(33.6875,-0.49609375)"/>
<path d="M0 0 C18.06832586 15.51861437 28.91375228 39.52971318 31 63 C31.50101636 72.24196248 31.13846739 81.14654983 29.4375 90.265625 C28.47152128 95.60436807 28.47152128 95.60436807 30.65234375 100.3671875 C31.40644531 101.19476563 32.16054687 102.02234375 32.9375 102.875 C55.03595275 128.76076619 61.79971748 161.76521727 60 195 C57.17289894 227.55726063 40.02127514 257.49679667 15.6640625 278.80078125 C-10.83361064 300.6749601 -44.31623509 310.76776293 -78.49853516 307.78173828 C-96.32469888 305.74128623 -112.32311676 300.66108995 -128 292 C-128.94746094 291.48308594 -129.89492187 290.96617187 -130.87109375 290.43359375 C-137.07436191 286.8819566 -142.55709699 282.61796302 -148 278 C-149.2375 276.96552734 -149.2375 276.96552734 -150.5 275.91015625 C-174.3708441 255.28425502 -188.4225164 226.10274922 -192 195 C-194.06563751 161.80225432 -186.96506069 130.4050964 -166 104 C-165.0821875 103.06671875 -164.164375 102.1334375 -163.21875 101.171875 C-160.85132196 97.78745323 -160.61290769 96.40777858 -161.27294922 92.39526367 C-161.40975098 91.70795166 -161.54655273 91.02063965 -161.6875 90.3125 C-161.92133347 88.79556758 -162.14628791 87.27724527 -162.36328125 85.7578125 C-162.47623535 84.97438477 -162.58918945 84.19095703 -162.70556641 83.38378906 C-165.88083806 57.67619998 -158.47292041 32.56527396 -143 12 C-127.7823184 -7.35087907 -105.09056279 -21.26936685 -80.546875 -24.71875 C-50.10482481 -27.13265706 -23.59046683 -19.78453818 0 0 Z M-130 18 C-145.13744367 36.65262411 -150.49835342 58.44717913 -149 82 C-148.48845738 85.75549181 -147.6283895 89.39116181 -146.65625 93.0546875 C-145.93370283 96.29754801 -145.55181564 98.69464033 -146 102 C-147.60382 104.24357908 -149.12131619 106.08380787 -151 108.0625 C-173.35194213 133.08086352 -179.71481655 163.29699986 -178 196 C-177.33707263 202.19055592 -175.88862751 208.078276 -174 214 C-173.78569336 214.68449219 -173.57138672 215.36898437 -173.35058594 216.07421875 C-163.9216989 245.33533543 -143.34333384 268.55709618 -116.15771484 282.58569336 C-108.96193299 286.16494608 -101.78958775 288.94395002 -94 291 C-92.79859375 291.31710937 -91.5971875 291.63421875 -90.359375 291.9609375 C-60.28886145 298.70514733 -29.93101385 292.05434828 -4 276 C-0.47425768 273.52708351 2.77268456 270.84763127 6 268 C6.81855469 267.31292969 7.63710937 266.62585938 8.48046875 265.91796875 C29.34259309 247.9668385 42.02736938 223.14318121 46 196 C46.76878244 181.62260349 47.08403629 166.90556485 43 153 C42.67128906 151.80246094 42.34257812 150.60492188 42.00390625 149.37109375 C37.07180548 133.00471091 28.51709111 117.48904933 16.375 105.375 C14.62436481 103.37289235 14.03843588 102.41140622 13.7890625 99.7421875 C14.0821559 96.27934329 14.78520413 92.97050103 15.53515625 89.58203125 C20.03364586 68.08924755 16.07962018 46.1180531 4.8125 27.3125 C-7.77008427 8.74215085 -27.19850927 -5.91506592 -49.46875 -10.375 C-80.03500665 -15.2567252 -109.43386589 -5.34217123 -130 18 Z " fill="#DD0202" transform="translate(193,204)"/>
<path d="M0 0 C3.92411228 3.33832637 7.59734437 6.9004246 11.21289062 10.56738281 C11.96183594 11.30601562 12.71078125 12.04464844 13.48242188 12.80566406 C31.95426354 32.15191244 37.84063037 57.90279893 37.48242188 83.85644531 C37.33744499 88.57788496 36.68881313 92.89052101 35.71289062 97.50488281 C34.92401223 101.933431 34.92401223 101.933431 36.58007812 105.95019531 C38.57906422 108.17408273 38.57906422 108.17408273 40.86132812 110.25878906 C58.62383399 127.69673087 66.32387888 159.11226782 66.59350586 183.03540039 C66.59397841 184.40022907 66.59206131 185.76506043 66.58789062 187.12988281 C66.58701447 187.83325775 66.58613831 188.53663269 66.5852356 189.26132202 C66.53812315 200.75953104 65.67463126 211.55005989 62.21289062 222.56738281 C61.97151367 223.34823242 61.73013672 224.12908203 61.48144531 224.93359375 C51.0256895 257.77387333 28.56936635 284.49351835 -2.03466797 300.42211914 C-32.21628676 315.31672434 -67.21281042 318.06164041 -99.21948242 307.53637695 C-101.08131158 306.89712936 -102.93445246 306.23274562 -104.78710938 305.56738281 C-105.8209375 305.19871094 -106.85476563 304.83003906 -107.91992188 304.45019531 C-120.96841178 299.40477922 -132.28216233 291.71573073 -142.78710938 282.56738281 C-143.44195312 282.03371094 -144.09679687 281.50003906 -144.77148438 280.95019531 C-158.60646994 269.62509651 -168.61327507 253.74450622 -175.78710938 237.56738281 C-176.26921875 236.48972656 -176.75132812 235.41207031 -177.24804688 234.30175781 C-190.14711785 203.18763509 -188.47433285 167.39129433 -175.78710938 136.56738281 C-171.54336275 127.00130331 -166.33949031 118.37374935 -159.83007812 110.18066406 C-155.52541192 105.31958432 -155.52541192 105.31958432 -153.79882812 99.39941406 C-154.02183594 98.73296875 -154.24484375 98.06652344 -154.47460938 97.37988281 C-155.9662864 92.11929402 -156.45877921 87.0161001 -156.78710938 81.56738281 C-156.84125 80.82359375 -156.89539063 80.07980469 -156.95117188 79.31347656 C-157.92801517 53.78234486 -147.54483608 29.28943887 -130.65429688 10.56347656 C-97.46237303 -24.78626125 -38.34394603 -30.73801575 0 0 Z M-123.14013672 23.17041016 C-137.10938888 40.70671112 -144.49444223 62.05061335 -142.78710938 84.56738281 C-142.20558009 88.72645744 -141.3435174 92.81041294 -140.44335938 96.91113281 C-138.80890511 106.01737799 -138.80890511 106.01737799 -141.40429688 110.12988281 C-142.149375 110.93425781 -142.89445312 111.73863281 -143.66210938 112.56738281 C-165.08217718 137.25434776 -173.27359646 166.15095336 -171.78710938 198.56738281 C-169.92572489 221.15577815 -160.01996144 242.19348754 -145.78710938 259.56738281 C-144.7584375 260.84355469 -144.7584375 260.84355469 -143.70898438 262.14550781 C-126.33508163 282.60810438 -98.52135432 297.27187696 -71.78710938 299.56738281 C-38.0359449 301.44568596 -8.72831405 292.48586001 16.76757812 270.20898438 C39.6553293 249.63034008 51.73742363 220.59668239 53.39648438 190.20410156 C54.01773485 160.27444651 42.96948031 133.48691496 23.52539062 111.19238281 C20.32364132 107.24334393 20.32364132 107.24334393 19.87304688 104.49316406 C20.09905487 102.40156281 20.62134304 100.58503717 21.21289062 98.56738281 C27.15782625 76.90151597 23.17798786 54.61905608 12.26855469 35.35693359 C0.64885969 15.65934703 -17.24784456 2.67135343 -39.03710938 -3.74511719 C-69.31649793 -11.35001846 -102.97387745 -0.7219858 -123.14013672 23.17041016 Z " fill="#DD0202" transform="translate(445.787109375,198.4326171875)"/>
<path d="M0 0 C1.32451172 1.12341797 1.32451172 1.12341797 2.67578125 2.26953125 C3.40410156 2.88441406 4.13242188 3.49929687 4.8828125 4.1328125 C18.30997585 16.50063357 25.60214806 34.24783134 26.67578125 52.26953125 C26.9380722 66.42012822 26.9380722 66.42012822 23.99609375 70.73046875 C20.83542895 72.82693665 19.43194114 72.8851489 15.67578125 72.26953125 C12.67439848 70.94347952 9.88410706 69.29390754 7.05078125 67.64453125 C-17.98263877 53.82422636 -47.17067234 50.60434758 -74.76782227 58.15087891 C-85.93953037 61.40071396 -96.60875899 65.79255808 -106.32421875 72.26953125 C-109.79734198 72.71290868 -111.581904 72.80655383 -114.45703125 70.7265625 C-116.93619383 67.4642335 -117.12082746 64.54269168 -117.26171875 60.58203125 C-117.31126709 59.46405151 -117.31126709 59.46405151 -117.36181641 58.32348633 C-117.89512276 37.65678106 -110.18097287 19.55760596 -96.13671875 4.51953125 C-69.66380292 -20.48266704 -28.63740821 -22.87199622 0 0 Z M-90.3203125 19.45703125 C-98.0083877 28.71578848 -103.32421875 41.09966065 -103.32421875 53.26953125 C-99.02220652 51.86159997 -94.74017299 50.43548336 -90.50390625 48.83984375 C-59.77429718 37.35146415 -27.4846438 38.41186915 3.0390625 49.90234375 C6.2310639 51.10234428 9.43370792 52.21397249 12.67578125 53.26953125 C10.81413053 36.04231561 4.08646207 21.55888619 -9.32421875 10.26953125 C-35.89881894 -9.04499776 -68.5811463 -4.36671253 -90.3203125 19.45703125 Z " fill="#DD0202" transform="translate(172.32421875,219.73046875)"/>
<path d="M0 0 C15.00558268 12.63317647 24.85646505 29.24885656 27 49 C27.1128404 51.49823403 27.17458291 53.99925223 27.1875 56.5 C27.20167969 57.7478125 27.21585938 58.995625 27.23046875 60.28125 C26.98953238 64.16890122 26.35917213 67.35145819 25 71 C22 73 22 73 18.80078125 72.86328125 C14.46902693 71.87939872 11.07436098 70.27340797 7.1875 68.1875 C5.76295747 67.45461847 4.33717936 66.72413345 2.91015625 65.99609375 C2.23098145 65.64788574 1.55180664 65.29967773 0.85205078 64.94091797 C-11.17833265 58.8289884 -25.51570502 55.51949545 -39 55 C-39.90363281 54.96003906 -40.80726563 54.92007813 -41.73828125 54.87890625 C-62.87983634 54.40287123 -84.00417266 59.99331152 -102.0625 71 C-105.13617181 72.77485447 -106.11387669 73.00367344 -109.875 73.125 C-113 72 -113 72 -114.671875 70.0546875 C-116.57230431 65.68370009 -116.44857969 61.71704344 -116.375 57 C-116.36339844 56.05809814 -116.35179687 55.11619629 -116.33984375 54.14575195 C-115.88900953 34.83115199 -108.19460887 18.2866698 -94.625 4.60546875 C-68.69525791 -19.82521012 -28.34918909 -21.72663262 0 0 Z M-89 19 C-97.30356561 29.36297545 -102.33378806 40.56140234 -102 54 C-101.1495813 53.66790527 -101.1495813 53.66790527 -100.28198242 53.32910156 C-66.08467293 40.10297643 -31.04436016 36.48619486 3.6171875 50.6328125 C6.71473713 51.884709 9.82007494 52.97892315 13 54 C12.43997358 41.34340284 8.31471112 31.26068173 1 21 C0.2575 19.948125 -0.485 18.89625 -1.25 17.8125 C-12.89634233 5.90146807 -27.69280665 -0.91705031 -44.3125 -1.4375 C-62.07020098 -1.01945791 -77.07214188 5.94454524 -89 19 Z " fill="#DD0202" transform="translate(431,219)"/>
<path d="M0 0 C8.35960213 6.63613887 10.29584562 21.19080363 11.625 31.375 C13.79039112 54.17066284 8.10147896 77.93688403 -6.52929688 95.875 C-17.53855489 108.68577296 -17.53855489 108.68577296 -22.9375 109.375 C-26 109 -26 109 -28.4375 107.4375 C-30.15459147 104.7588373 -30.58175314 103.1016514 -29.92578125 99.9609375 C-28.28657806 96.48886998 -25.316643 94.23397466 -22.546875 91.640625 C-9.75761767 78.38059746 -3.058762 59.69914491 -2.625 41.5 C-2.84466861 31.87452069 -4.76404124 22.95697737 -8.25 14 C-9.80439103 9.95024559 -10.58542624 7.22780332 -9 3 C-6.6975944 -0.63537727 -4.0732876 -0.58189823 0 0 Z " fill="#DD0202" transform="translate(471,345)"/>
<path d="M0 0 C4.03340301 0.75626306 4.70768943 2.21916956 7 5.5625 C8.4140625 8.76171875 8.4140625 8.76171875 9.625 12.25 C10.02976563 13.38824219 10.43453125 14.52648437 10.8515625 15.69921875 C16.34276339 33.23042026 16.00503922 53.23875199 10 70.5625 C9.649375 71.60019531 9.29875 72.63789063 8.9375 73.70703125 C4.01554461 86.746795 -5.16745391 101.83414332 -17 109.5625 C-20.65443439 110.09543835 -22.30522452 110.0378727 -25.375 107.9375 C-27 105.5625 -27 105.5625 -27.75 102.8125 C-26.74386692 98.45259 -24.50345497 96.80931231 -21.2890625 93.81640625 C-7.62611836 80.36330255 -0.4838716 61.45970843 0.03125 42.5078125 C-0.05062674 32.17087406 -2.10969509 23.28533526 -5.9765625 13.71875 C-7.04360912 10.42801081 -7.31307874 7.9965824 -7 4.5625 C-4.88658096 1.47365679 -3.68753254 0.69141235 0 0 Z " fill="#DD0202" transform="translate(209,344.4375)"/>
</svg>
