<?xml version="1.0" encoding="UTF-8"?>
<svg version="1.1" xmlns="http://www.w3.org/2000/svg" width="512" height="512">
<path d="M0 0 C8.78576459 5.30918903 13.63135492 12.15268519 17.859375 21.4140625 C18.54955491 24.55124389 18.83787451 27.5341503 19.08984375 30.734375 C19.21975708 32.36270264 19.21975708 32.36270264 19.35229492 34.02392578 C19.41650635 34.8539209 19.48071777 35.68391602 19.546875 36.5390625 C20.71259033 36.52858887 21.87830566 36.51811523 23.0793457 36.50732422 C27.40109185 36.47114528 31.72282459 36.44816969 36.04467773 36.42919922 C37.91579438 36.41913683 39.78689528 36.40548559 41.65795898 36.38818359 C44.34623091 36.36394566 47.03429506 36.35258187 49.72265625 36.34375 C50.56024979 36.33342743 51.39784332 36.32310486 52.26081848 36.31246948 C58.20525988 36.31131909 58.20525988 36.31131909 61.546875 38.5390625 C62.7046256 42.01231431 62.61554152 44.89973698 62.546875 48.5390625 C63.68835495 48.53240067 64.8298349 48.52573883 66.00590515 48.51887512 C76.76181928 48.45806734 87.51769854 48.41309141 98.27374554 48.38362598 C103.80358226 48.36796828 109.33328024 48.34672788 114.86303711 48.31274414 C120.19928667 48.28015475 125.53540276 48.26221027 130.87174416 48.25443077 C132.90791742 48.24888653 134.94408335 48.23806006 136.98019981 48.22187233 C139.83160581 48.20010383 142.68245986 48.19709536 145.53393555 48.19848633 C146.37622711 48.1877005 147.21851868 48.17691467 148.08633423 48.165802 C152.72701361 48.19030742 155.77988747 48.51725531 159.546875 51.5390625 C161.03557905 54.51647059 160.68635779 57.55273879 160.67830276 60.81741905 C160.6803554 61.57998489 160.68240803 62.34255072 160.68452287 63.12822461 C160.69022443 65.71028531 160.68873175 68.2922932 160.68731689 70.87435913 C160.68989872 72.73352006 160.69291136 74.59268044 160.6963203 76.45184004 C160.70441493 81.58171145 160.70618123 86.71156889 160.70691776 91.84144592 C160.70876403 97.36574176 160.71630915 102.89003027 160.72305298 108.4143219 C160.73665392 120.5029285 160.74266365 132.5915318 160.74706364 144.68014479 C160.74982287 152.2224799 160.75405962 159.76481373 160.75856781 167.30714798 C160.77076237 188.17322131 160.78109699 209.03929394 160.7844429 229.90537071 C160.78466454 231.25518504 160.78488632 232.60499937 160.78510825 233.9548137 C160.7853289 235.30792835 160.78554938 236.661043 160.7857697 238.01415765 C160.78621226 240.72883948 160.78665937 243.4435213 160.78710938 246.15820312 C160.78727346 247.16783099 160.78727346 247.16783099 160.78744086 248.19785539 C160.79107284 270.03086152 160.80699785 291.86383448 160.83029974 313.6968279 C160.85487814 336.76794745 160.86860806 359.83905166 160.86981082 382.91018641 C160.87072913 395.49144659 160.87652066 408.07266334 160.89463043 420.65391159 C160.90999327 431.36484345 160.91517451 442.07571845 160.90689233 452.78665923 C160.90297235 458.25543111 160.90398082 463.72408835 160.91794968 469.1928463 C160.93060809 474.19411953 160.9295626 479.19519103 160.91735896 484.19646366 C160.9153879 486.01073143 160.9185447 487.82501311 160.92720333 489.63926129 C160.93819117 492.09609755 160.93088329 494.55220863 160.9188118 497.00902367 C160.93020459 498.07774373 160.93020459 498.07774373 160.94182754 499.1680541 C160.91043197 502.10634325 160.65569682 504.30966929 159.38975883 506.97822964 C156.79131411 509.17898578 155.0728329 509.04036652 151.688797 509.04242706 C150.45851871 509.05285805 149.22824041 509.06328904 147.96068096 509.07403612 C146.58812416 509.0653871 145.21556969 509.05636044 143.84301758 509.04699707 C142.39063039 509.0516032 140.93824785 509.05795418 139.48587513 509.06590605 C135.48496501 509.08266236 131.48443469 509.07432469 127.48352289 509.06196117 C123.17261285 509.05293861 118.8617697 509.06686647 114.5508728 509.07788086 C106.10194935 509.09570066 97.65316775 509.09181074 89.20423865 509.0802303 C82.33981137 509.07120982 75.47542394 509.06996595 68.61099243 509.07432556 C67.63533791 509.07493849 66.6596834 509.07555143 65.65446359 509.07618293 C63.67266137 509.07746179 61.69085917 509.07875864 59.70905697 509.0800733 C41.1100951 509.09148923 22.51121199 509.07834952 3.91226304 509.05687183 C-12.05885629 509.03899993 -28.02985934 509.04210376 -44.00097656 509.06054688 C-62.53176063 509.08193571 -81.06247561 509.0903905 -99.5932703 509.07809782 C-101.56792767 509.07682358 -103.54258504 509.07556609 -105.51724243 509.07432556 C-106.974732 509.07339991 -106.974732 509.07339991 -108.46166581 509.07245556 C-115.32068262 509.06899669 -122.17965573 509.07484254 -129.03866577 509.08424377 C-137.3934754 509.0954431 -145.74813465 509.09246739 -154.10292697 509.0711208 C-158.36861499 509.06058242 -162.63405195 509.05653569 -166.89973831 509.06971741 C-170.80064351 509.08158989 -174.70106368 509.07516476 -178.60192454 509.0538072 C-180.01708259 509.04931914 -181.43228118 509.0516565 -182.84741342 509.06131035 C-184.76326358 509.07338287 -186.67922766 509.05867045 -188.595047 509.04242706 C-190.1948376 509.04145295 -190.1948376 509.04145295 -191.82694721 509.04045916 C-194.453125 508.5390625 -194.453125 508.5390625 -196.29565966 506.97788048 C-197.87135498 503.65783803 -197.86616052 500.61415012 -197.83064842 497.01461029 C-197.83718891 495.86730001 -197.83718891 495.86730001 -197.84386152 494.69681174 C-197.85486093 492.11878231 -197.84437413 489.54128289 -197.83407593 486.96325684 C-197.83753064 485.10236762 -197.84229395 483.24148045 -197.84825766 481.38059759 C-197.86082292 476.25519232 -197.85457222 471.12995384 -197.84529901 466.00454783 C-197.83853141 460.48164262 -197.84897834 454.95876676 -197.85723877 449.43586731 C-197.87060282 438.61184022 -197.86768648 427.78787541 -197.85900085 416.96384585 C-197.85223521 408.16963286 -197.85130272 399.37543737 -197.8545723 390.58122253 C-197.855032 389.33123147 -197.85549169 388.0812404 -197.85596532 386.79337081 C-197.85692447 384.25431287 -197.85789711 381.71525493 -197.8588831 379.17619699 C-197.86720058 356.02781968 -197.85856413 332.87947499 -197.84285531 309.73110517 C-197.82861803 288.59041256 -197.82989189 267.44977416 -197.84423828 246.30908203 C-197.86029523 222.56824754 -197.86662077 198.82743931 -197.85740149 175.08659792 C-197.85644581 172.55669944 -197.8555027 170.02680096 -197.8545723 167.49690247 C-197.85410947 166.25203153 -197.85364664 165.0071606 -197.85316979 163.72456631 C-197.85057576 154.93739778 -197.85495978 146.15024844 -197.86201096 137.36308289 C-197.87041084 126.65951051 -197.86817771 115.95600416 -197.85216872 105.25243938 C-197.84426562 99.78771 -197.84122904 94.32309085 -197.85111618 88.8583622 C-197.86002147 83.86085959 -197.85519934 78.86356993 -197.83918352 73.86608678 C-197.83581798 72.05322872 -197.83756927 70.24035287 -197.84481089 68.42750615 C-197.85386902 65.97258272 -197.84464301 63.51839883 -197.83064842 61.06351471 C-197.83767192 60.35160636 -197.84469542 59.63969801 -197.85193175 58.90621668 C-197.81713597 55.8742712 -197.60044329 53.80454492 -196.11702979 51.13128424 C-192.39245449 47.56716819 -187.48229581 48.40515826 -182.66723633 48.42553711 C-181.32058647 48.42531807 -181.32058647 48.42531807 -179.94673157 48.4250946 C-176.97618197 48.42579186 -174.00569491 48.43357553 -171.03515625 48.44140625 C-168.97678156 48.44327109 -166.91840642 48.44469468 -164.86003113 48.44569397 C-159.43981706 48.44951391 -154.01962976 48.45933977 -148.59942627 48.47039795 C-143.06954307 48.48062329 -137.53965555 48.485194 -132.00976562 48.49023438 C-121.15754032 48.50096247 -110.30533489 48.51803266 -99.453125 48.5390625 C-99.47117187 47.43304688 -99.48921875 46.32703125 -99.5078125 45.1875 C-99.45708002 41.80291914 -99.3376479 40.26115113 -97.453125 37.5390625 C-94.12157249 35.87328625 -90.38776441 36.41898394 -86.7265625 36.44140625 C-85.43233871 36.44352867 -85.43233871 36.44352867 -84.11196899 36.44569397 C-81.3506527 36.45130062 -78.58941688 36.46385423 -75.828125 36.4765625 C-73.9583345 36.48157664 -72.08854274 36.4861397 -70.21875 36.49023438 C-65.63017723 36.50127221 -61.04166477 36.5185413 -56.453125 36.5390625 C-56.40559082 35.74532227 -56.35805664 34.95158203 -56.30908203 34.13378906 C-55.56099447 23.39210294 -53.09254203 14.27087511 -45.4765625 6.2890625 C-32.87910695 -4.60603419 -15.10756629 -7.47031593 0 0 Z M-35.94921875 16.79296875 C-42.07879756 23.90964857 -42.64397595 31.86617411 -42.97070312 40.87109375 C-43.23779155 46.32372905 -43.23779155 46.32372905 -45.453125 48.5390625 C-48.46199224 48.78512265 -51.38530252 48.91287032 -54.3984375 48.953125 C-55.72595535 48.98217422 -55.72595535 48.98217422 -57.08029175 49.0118103 C-59.91280416 49.07168973 -62.74535703 49.11802463 -65.578125 49.1640625 C-67.49611168 49.20223461 -69.41408107 49.24128588 -71.33203125 49.28125 C-76.03897363 49.37905659 -80.7457273 49.45855795 -85.453125 49.5390625 C-85.453125 59.7690625 -85.453125 69.9990625 -85.453125 80.5390625 C-41.233125 80.5390625 2.986875 80.5390625 48.546875 80.5390625 C48.546875 70.3090625 48.546875 60.0790625 48.546875 49.5390625 C45.68257812 49.49007812 42.81828125 49.44109375 39.8671875 49.390625 C37.10036891 49.33665191 34.33363865 49.27933003 31.56689453 49.22167969 C29.64052886 49.18334082 27.7140904 49.14849668 25.78759766 49.1171875 C23.02219582 49.07164305 20.25729731 49.01363213 17.4921875 48.953125 C16.6275589 48.94157379 15.7629303 48.93002258 14.87210083 48.91812134 C8.77461841 48.76680591 8.77461841 48.76680591 6.546875 46.5390625 C6.31471544 43.99706227 6.18008548 41.52300548 6.109375 38.9765625 C5.68467798 30.07574452 4.61295279 22.76044955 -1.73046875 16.04296875 C-11.97879345 7.09601861 -26.09838758 7.62781028 -35.94921875 16.79296875 Z M-183.453125 62.5390625 C-183.453125 205.4290625 -183.453125 348.3190625 -183.453125 495.5390625 C-74.553125 495.5390625 34.346875 495.5390625 146.546875 495.5390625 C146.546875 352.6490625 146.546875 209.7590625 146.546875 62.5390625 C136.976875 62.5390625 127.406875 62.5390625 117.546875 62.5390625 C117.54329247 65.62715381 117.54329247 65.62715381 117.53963757 68.77763081 C117.48252877 117.60471057 117.40963031 166.43174717 117.31788872 215.25877463 C117.30662003 221.2634179 117.29548166 227.26806141 117.28442383 233.27270508 C117.28222014 234.46816406 117.28001646 235.66362303 117.277746 236.89530804 C117.24233582 256.27345435 117.21749271 275.65160061 117.19652798 295.02976731 C117.17479552 314.90107584 117.14176954 334.77234224 117.09817344 354.64361495 C117.0716126 366.91358151 117.05394991 379.18349554 117.04752896 391.45348945 C117.0422886 399.8578518 117.02611739 408.26214794 117.00120934 416.66647486 C116.9871478 421.52144266 116.97804079 426.37629182 116.98186684 431.23128128 C116.98525947 435.67070484 116.97501474 440.10987434 116.95363948 444.5492458 C116.94834043 446.16031615 116.94816901 447.77141267 116.95347937 449.38248298 C116.95993774 451.56295357 116.9481778 453.74257161 116.93163586 455.92297077 C116.92973725 457.13693667 116.92783865 458.35090256 116.92588252 459.6016553 C116.546875 462.5390625 116.546875 462.5390625 115.30306178 464.42897302 C113.07322852 465.83845547 111.69658931 465.91498102 109.06312561 465.91658592 C108.13938613 465.92440916 107.21564665 465.93223241 106.26391506 465.94029272 C105.2474896 465.93360055 104.23106413 465.92690839 103.18383789 465.92001343 C102.10533349 465.9246934 101.02682909 465.92937337 99.91564274 465.93419516 C96.28348234 465.94620943 92.65169478 465.93666265 89.01953125 465.92724609 C86.4230019 465.93130893 83.82647428 465.93664918 81.22994995 465.94317627 C74.89862298 465.95653497 68.56740254 465.9536264 62.23607135 465.94493835 C57.09170833 465.93817058 51.94737522 465.93724114 46.80300903 465.9405098 C46.0715863 465.9409695 45.34016358 465.94142919 44.58657652 465.94190282 C43.10083031 465.94286197 41.6150841 465.94383461 40.12933791 465.9448206 C26.18867452 465.95338075 12.24807025 465.94353058 -1.69258344 465.9274195 C-13.66129618 465.91401574 -25.62992165 465.91634366 -37.59863281 465.93017578 C-51.48849329 465.94622058 -65.37830191 465.95255672 -79.26817036 465.94333899 C-80.74853324 465.94238332 -82.22889613 465.9414402 -83.70925903 465.9405098 C-84.80188605 465.93981556 -84.80188605 465.93981556 -85.91658634 465.93910729 C-91.05637252 465.93651409 -96.19612588 465.94089548 -101.33590698 465.94794846 C-108.25023313 465.95722771 -115.16439123 465.95064675 -122.07870102 465.93326569 C-124.62205607 465.92928605 -127.16542495 465.93045993 -129.70877457 465.93705368 C-133.16940274 465.94520088 -136.6294943 465.93503004 -140.09008789 465.92001343 C-141.10651336 465.92670559 -142.12293882 465.93339776 -143.17016506 465.94029272 C-144.09390454 465.93246947 -145.01764402 465.92464623 -145.96937561 465.91658592 C-146.76857957 465.91609887 -147.56778353 465.91561181 -148.39120579 465.91510999 C-150.453125 465.5390625 -150.453125 465.5390625 -152.20931178 464.42897302 C-154.07113605 461.60002634 -153.83261984 459.29006126 -153.83788586 455.92297077 C-153.84303576 455.24415976 -153.84818567 454.56534876 -153.85349163 453.86596772 C-153.86718672 451.5747142 -153.85940484 449.28402709 -153.85185242 446.99275208 C-153.85728779 445.34023806 -153.86403763 443.68772794 -153.87199432 442.03522414 C-153.89009291 437.4813277 -153.88945364 432.92759372 -153.88586485 428.37366974 C-153.88524302 423.4677191 -153.90184206 418.56182394 -153.91638184 413.65589905 C-153.9392136 405.15176297 -153.95106082 396.64766798 -153.95551109 388.14350319 C-153.96196127 375.84782046 -153.98487864 363.55221214 -154.01185439 351.25655933 C-154.05516855 331.30915222 -154.08510883 311.36174823 -154.10668945 291.41430664 C-154.12768529 272.03375715 -154.15494818 252.65323325 -154.19067383 233.27270508 C-154.19287265 232.07869502 -154.19507148 230.88468496 -154.19733693 229.65449277 C-154.20840624 223.66467598 -154.21959911 217.67485943 -154.23085344 211.68504298 C-154.32410405 161.96973854 -154.39544965 112.25441996 -154.453125 62.5390625 C-164.023125 62.5390625 -173.593125 62.5390625 -183.453125 62.5390625 Z M-140.453125 62.5390625 C-140.453125 191.5690625 -140.453125 320.5990625 -140.453125 453.5390625 C-59.933125 453.5390625 20.586875 453.5390625 103.546875 453.5390625 C103.546875 324.5090625 103.546875 195.4790625 103.546875 62.5390625 C90.016875 62.5390625 76.486875 62.5390625 62.546875 62.5390625 C62.37657195 71.24430432 62.37657195 71.24430432 62.24902344 79.95019531 C62.20310059 81.57973145 62.20310059 81.57973145 62.15625 83.2421875 C62.13530273 84.35239258 62.11435547 85.46259766 62.09277344 86.60644531 C61.41173234 90.26506146 60.45154713 91.25908534 57.546875 93.5390625 C54.6920166 94.04242706 54.6920166 94.04242706 51.32226562 94.04699707 C50.04359619 94.05827637 48.76492676 94.06955566 47.44750977 94.08117676 C46.03271258 94.07339973 44.61791763 94.06520707 43.203125 94.05664062 C41.71150021 94.06206142 40.21988077 94.06918384 38.72827148 94.07788086 C34.67864872 94.09612254 30.62943339 94.0890434 26.57980347 94.07636452 C22.34290464 94.06624114 18.10604082 94.07562835 13.86914062 94.08190918 C6.7538425 94.08918753 -0.36128958 94.07959302 -7.4765625 94.06054688 C-15.704153 94.03877769 -23.93134703 94.04582893 -32.15892792 94.0678525 C-39.22146754 94.0860012 -46.28388777 94.08856744 -53.34644318 94.07809782 C-57.56525675 94.07185994 -61.78388393 94.07103524 -66.00268555 94.08424377 C-69.96892873 94.09579406 -73.93466049 94.08779212 -77.90084839 94.06466675 C-79.35691478 94.05937518 -80.81302417 94.06090116 -82.26907349 94.06971741 C-84.25553862 94.08063684 -86.24209776 94.0645195 -88.22851562 94.04699707 C-89.34053345 94.04548897 -90.45255127 94.04398087 -91.5982666 94.04242706 C-95.12274865 93.42099541 -96.30274077 92.35147394 -98.453125 89.5390625 C-98.99902344 86.60644531 -98.99902344 86.60644531 -99.0625 83.2421875 C-99.10842285 81.61265137 -99.10842285 81.61265137 -99.15527344 79.95019531 C-99.17895996 77.89043457 -99.17895996 77.89043457 -99.203125 75.7890625 C-99.285625 71.4165625 -99.368125 67.0440625 -99.453125 62.5390625 C-112.983125 62.5390625 -126.513125 62.5390625 -140.453125 62.5390625 Z " fill="#DD0202" transform="translate(274.453125,3.4609375)"/>
<path d="M0 0 C1.38339936 0.90081819 2.72567046 1.86447429 4.0546875 2.84375 C4.63476562 2.43382812 5.21484375 2.02390625 5.8125 1.6015625 C6.59367187 1.06273437 7.37484375 0.52390625 8.1796875 -0.03125 C8.94539063 -0.56492188 9.71109375 -1.09859375 10.5 -1.6484375 C18.22538182 -6.20806652 27.18488192 -6.38462224 35.8359375 -4.57421875 C44.51345745 -1.56729332 51.75680572 4.7521368 56.0546875 12.84375 C61.66778697 25.65669083 60.88275395 37.88993563 55.9296875 50.78125 C47.15475456 70.69653259 27.13508757 87.89845175 7.0546875 95.84375 C1.00094607 96.6082868 -2.60352122 94.92419439 -7.6328125 91.90625 C-8.67937012 91.29390503 -8.67937012 91.29390503 -9.74707031 90.66918945 C-29.53760949 78.87237813 -44.85095953 64.19541437 -51.9453125 41.84375 C-52.7578125 38.03125 -52.7578125 38.03125 -52.9453125 34.84375 C-53.0278125 33.626875 -53.1103125 32.41 -53.1953125 31.15625 C-52.98823941 20.47127844 -49.31059418 11.65902305 -42.12890625 3.875 C-30.17992405 -7.51877696 -13.98809007 -8.31420614 0 0 Z M-30.97265625 12.546875 C-36.06092877 18.01165817 -38.95074352 23.60005364 -39.3828125 31.09375 C-38.77465462 45.81623861 -29.65314856 57.13559705 -19.4140625 66.86328125 C-13.37417723 72.27548524 -3.40960771 80.69136498 5.0546875 80.84375 C22.03284415 73.63514718 36.84585431 59.25203465 44.078125 42.46875 C47.15362945 34.34264649 46.9773253 27.17606041 43.44140625 19.2109375 C40.20943294 13.69382249 35.72023673 9.98642042 29.5546875 8.21875 C24.80786079 7.47398926 21.16726744 8.41768859 17.0546875 10.84375 C14.27424748 13.24503911 12.2120835 15.6273305 10.0546875 18.59375 C8.0546875 20.84375 8.0546875 20.84375 5.6171875 21.78125 C2.37939898 21.86022045 0.8528174 21.52262794 -1.9453125 19.84375 C-2.7768459 18.7478881 -3.56524024 17.61863129 -4.3203125 16.46875 C-7.53600641 11.63008832 -11.28423914 9.71149131 -16.8203125 7.90625 C-22.249235 7.79767155 -26.76529524 9.01236749 -30.97265625 12.546875 Z " fill="#DD0202" transform="translate(251.9453125,151.15625)"/>
<path d="M0 0 C0.67846513 -0.00623996 1.35693026 -0.01247993 2.05595493 -0.01890898 C4.32859142 -0.03485958 6.60015837 -0.02222777 8.87280273 -0.00964355 C10.50235622 -0.0150638 12.1319048 -0.02218591 13.76144409 -0.03088379 C18.18707652 -0.04913186 22.6123363 -0.04204359 27.03797531 -0.02936745 C31.66725425 -0.01924743 36.29650107 -0.02863035 40.92578125 -0.03491211 C48.70017227 -0.04219143 56.47441134 -0.03259336 64.2487793 -0.0135498 C73.23980034 0.00821951 82.23045858 0.00116834 91.22147083 -0.02085543 C98.93792993 -0.03900133 106.65427975 -0.04157172 114.37075329 -0.03110075 C118.98080073 -0.02486135 123.59067759 -0.0240424 128.20071411 -0.0372467 C132.53464891 -0.04879285 136.8681155 -0.04080235 141.20199966 -0.01766968 C142.7935216 -0.01237594 144.38508286 -0.01390776 145.9765892 -0.02272034 C148.1475242 -0.03363399 150.31695418 -0.01996558 152.48779297 0 C154.31068092 0.00226215 154.31068092 0.00226215 156.1703949 0.00457001 C159.85048198 0.60727847 161.0366635 1.55065013 163.24389648 4.50793457 C163.74389648 7.50793457 163.74389648 7.50793457 163.24389648 10.50793457 C161.0366635 13.46521901 159.85048198 14.40859067 156.1703949 15.01129913 C154.95513626 15.01280724 153.73987762 15.01431534 152.48779297 15.01586914 C151.80932784 15.0221091 151.13086271 15.02834907 150.43183804 15.03477812 C148.15920155 15.05072872 145.8876346 15.03809691 143.61499023 15.0255127 C141.98543675 15.03093294 140.35588816 15.03805505 138.72634888 15.04675293 C134.30071645 15.065001 129.87545667 15.05791273 125.44981766 15.04523659 C120.82053872 15.03511657 116.1912919 15.04449949 111.56201172 15.05078125 C103.7876207 15.05806057 96.01338163 15.0484625 88.23901367 15.02941895 C79.24799263 15.00764963 70.25733439 15.0147008 61.26632214 15.03672457 C53.54986304 15.05487047 45.83351322 15.05744086 38.11703968 15.04696989 C33.50699223 15.04073049 28.89711538 15.03991154 24.28707886 15.05311584 C19.95314406 15.06466199 15.61967747 15.05667149 11.2857933 15.03353882 C9.69427137 15.02824508 8.1027101 15.0297769 6.51120377 15.03858948 C4.34026877 15.04950313 2.17083879 15.03583473 0 15.01586914 C-1.82288795 15.01360699 -1.82288795 15.01360699 -3.68260193 15.01129913 C-7.36268901 14.40859067 -8.54887053 13.46521901 -10.75610352 10.50793457 C-11.25610352 7.50793457 -11.25610352 7.50793457 -10.75610352 4.50793457 C-7.59350199 0.27063278 -5.15077634 0.00639197 0 0 Z " fill="#DC0202" transform="translate(179.756103515625,323.4920654296875)"/>
<path d="M0 0 C0.99085639 -0.00445668 0.99085639 -0.00445668 2.00173008 -0.0090034 C4.21951944 -0.01768856 6.4372548 -0.01919848 8.65505981 -0.02069092 C10.24342972 -0.02531918 11.83179852 -0.03034385 13.42016602 -0.03573608 C17.73836777 -0.04886031 22.05655397 -0.05530495 26.37477255 -0.05974674 C29.07190377 -0.06267711 31.76903074 -0.06678182 34.46615982 -0.07125092 C42.90288202 -0.0849252 51.3395945 -0.09459249 59.77632701 -0.09845281 C69.51919534 -0.10293514 79.26192348 -0.12049143 89.00474918 -0.1494534 C96.53349085 -0.17105787 104.06219304 -0.18115641 111.59096539 -0.18249393 C116.08871225 -0.18354274 120.58632733 -0.18946678 125.0840416 -0.20731354 C129.31444575 -0.22377317 133.54461875 -0.22596005 137.77504349 -0.21717453 C139.32745736 -0.21640305 140.87988356 -0.22076147 142.43226624 -0.23063278 C144.55228819 -0.24332279 146.67148775 -0.23749238 148.79150391 -0.22705078 C149.97764219 -0.22851734 151.16378048 -0.2299839 152.38586235 -0.2314949 C156.14807833 0.21458833 158.82465252 1.44235882 161.5227356 4.14044189 C161.9877281 10.4178407 161.9877281 10.4178407 160.42701721 12.84319496 C157.57207111 14.78805965 155.23564201 14.51824309 151.80422974 14.52139282 C151.11774636 14.52607279 150.43126299 14.53075277 149.72397709 14.53557456 C147.41842014 14.54756253 145.11345344 14.53805292 142.80789185 14.52862549 C141.15716199 14.53268952 139.50643485 14.53803045 137.85571289 14.54455566 C133.36816133 14.5582552 128.88081622 14.55291978 124.39326096 14.54341841 C119.70211979 14.53583545 115.01099658 14.54286362 110.31985474 14.5475769 C102.44116026 14.55303844 94.56255009 14.54583242 86.68386841 14.53155518 C77.56850332 14.51522789 68.45333952 14.52051612 59.33797932 14.53703439 C51.51881083 14.55063794 43.69970303 14.55257447 35.88052654 14.54471838 C31.20736579 14.54003563 26.53429973 14.53943351 21.86114502 14.54932785 C17.46820759 14.5579788 13.07553026 14.55201002 8.682621 14.53464508 C7.06810056 14.5306702 5.45355832 14.53183135 3.83904648 14.53843307 C1.63948023 14.54659947 -0.55924619 14.53638759 -2.75875854 14.52139282 C-4.60710045 14.51969621 -4.60710045 14.51969621 -6.49278259 14.51796532 C-9.4772644 14.14044189 -9.4772644 14.14044189 -11.37373352 12.83538246 C-13.23937782 9.96989291 -12.83102823 7.44223757 -12.4772644 4.14044189 C-9.37325054 -0.29386362 -5.00640946 0.01256334 0 0 Z " fill="#DD0202" transform="translate(181.47726440429688,359.85955810546875)"/>
<path d="M0 0 C0.68648337 -0.00467997 1.37296675 -0.00935994 2.08025265 -0.01418173 C4.38580959 -0.02616971 6.69077629 -0.01666009 8.99633789 -0.00723267 C10.64706775 -0.0112967 12.29779488 -0.01663762 13.94851685 -0.02316284 C18.43606841 -0.03686238 22.92341352 -0.03152696 27.41096878 -0.02202559 C32.10210995 -0.01444262 36.79323316 -0.0214708 41.484375 -0.02618408 C49.36306947 -0.03164562 57.24167965 -0.0244396 65.12036133 -0.01016235 C74.23572641 0.00616493 83.35089021 0.0008767 92.46625042 -0.01564157 C100.2854189 -0.02924511 108.1045267 -0.03118165 115.92370319 -0.02332556 C120.59686394 -0.01864281 125.26993001 -0.01804069 129.94308472 -0.02793503 C134.33602215 -0.03658598 138.72869947 -0.0306172 143.12160873 -0.01325226 C144.73612918 -0.00927738 146.35067142 -0.01043852 147.96518326 -0.01704025 C150.16474951 -0.02520665 152.36347593 -0.01499476 154.56298828 0 C155.79521622 0.00113108 157.02744415 0.00226215 158.29701233 0.00342751 C161.28149414 0.38095093 161.28149414 0.38095093 163.17796326 1.68601036 C165.04360756 4.55149991 164.63525796 7.07915525 164.28149414 10.38095093 C162.45034207 12.99688245 161.37181048 13.35084548 158.28149414 14.38095093 C156.12413568 14.47922408 153.96381853 14.51597344 151.80422974 14.52139282 C150.81337334 14.52584951 150.81337334 14.52584951 149.80249965 14.53039622 C147.5847103 14.53908138 145.36697494 14.5405913 143.14916992 14.54208374 C141.56080001 14.546712 139.97243122 14.55173667 138.38406372 14.55712891 C134.06586197 14.57025313 129.74767577 14.57669778 125.42945719 14.58113956 C122.73232596 14.58406993 120.035199 14.58817465 117.33806992 14.59264374 C108.90134772 14.60631802 100.46463524 14.61598532 92.02790272 14.61984563 C82.2850344 14.62432796 72.54230625 14.64188425 62.79948056 14.67084622 C55.27073889 14.6924507 47.74203669 14.70254923 40.21326435 14.70388675 C35.71551748 14.70493556 31.2179024 14.7108596 26.72018814 14.72870636 C22.48978398 14.74516599 18.25961099 14.74735287 14.02918625 14.73856735 C12.47677238 14.73779587 10.92434618 14.74215429 9.3719635 14.7520256 C7.25194154 14.76471561 5.13274198 14.7588852 3.01272583 14.7484436 C1.2335184 14.75064344 1.2335184 14.75064344 -0.58163261 14.75288773 C-4.34384859 14.30680449 -7.02042278 13.079034 -9.71850586 10.38095093 C-10.18349836 4.10355212 -10.18349836 4.10355212 -8.62278748 1.67819786 C-5.76784137 -0.26666683 -3.43141228 0.00314973 0 0 Z " fill="#DD0202" transform="translate(178.718505859375,287.6190490722656)"/>
</svg>
