<?xml version="1.0" encoding="UTF-8"?>
<svg version="1.1" xmlns="http://www.w3.org/2000/svg" width="512" height="512">
<path d="M0 0 C1.53882085 -0.00269933 3.07764002 -0.0065854 4.61645508 -0.01159668 C7.83073272 -0.01747111 11.04456364 -0.00899593 14.25878906 0.00976562 C18.36100328 0.03255457 22.46217043 0.01942032 26.56434631 -0.00452423 C29.73872646 -0.01903838 32.91286189 -0.01435072 36.08724976 -0.00401306 C37.59899014 -0.00136124 39.11075337 -0.00456068 40.62246704 -0.01393127 C49.77737918 -0.05823767 56.78321518 0.16747582 64.17578125 6.13671875 C70.95016002 14.23000312 71.69300764 22.68723116 71.625 32.96875 C71.64498047 34.03673828 71.66496094 35.10472656 71.68554688 36.20507812 C71.68046036 44.53170219 70.37302606 51.59278142 65.0390625 58.1875 C64.30429687 58.7959375 63.56953125 59.404375 62.8125 60.03125 C62.08289063 60.6603125 61.35328125 61.289375 60.6015625 61.9375 C55.9156168 65.03113405 51.456903 65.78144211 45.9140625 65.7265625 C44.76035156 65.72011719 43.60664063 65.71367188 42.41796875 65.70703125 C41.22816406 65.69027344 40.03835938 65.67351562 38.8125 65.65625 C37.59949219 65.64722656 36.38648438 65.63820313 35.13671875 65.62890625 C32.15356071 65.60541682 29.17050468 65.56954821 26.1875 65.53125 C26.1875 71.80125 26.1875 78.07125 26.1875 84.53125 C27.67636719 84.62921875 29.16523438 84.7271875 30.69921875 84.828125 C65.07293191 87.27121536 95.68510212 96.16339235 125.9140625 112.78125 C129.0653986 114.58410015 129.0653986 114.58410015 132.1875 115.53125 C132.70957031 114.88800781 133.23164063 114.24476562 133.76953125 113.58203125 C135.33722132 111.657424 136.91209504 109.73865679 138.4921875 107.82421875 C140.32362331 105.60224634 142.11277214 103.35313509 143.8828125 101.08203125 C149.69250031 93.74402543 155.07271081 87.7170482 164.71875 86.109375 C176.31547454 85.46511253 183.81877529 92.2388231 192.05078125 99.4609375 C196.5524664 103.64288929 199.90338448 108.12652142 200.42578125 114.38671875 C200.69054549 126.27323944 197.63428709 131.32573239 189.6484375 139.85546875 C185.6162097 144.23971644 181.91971124 148.89024974 178.1875 153.53125 C180.79817015 157.59295323 183.55571303 161.20742002 186.75 164.84375 C193.03134927 172.21418045 198.15693761 180.2745253 203.1875 188.53125 C203.59387695 189.19672852 204.00025391 189.86220703 204.41894531 190.54785156 C210.77824498 201.08716984 215.78455651 212.04499969 220.1875 223.53125 C220.46722656 224.26037598 220.74695313 224.98950195 221.03515625 225.74072266 C225.88797406 238.66691791 228.75808309 251.96194937 231.1875 265.53125 C231.38883545 266.62542236 231.38883545 266.62542236 231.59423828 267.74169922 C240.84140191 320.2983634 225.72708904 377.92271098 195.72607422 421.37744141 C160.93961479 470.07406868 109.66648575 501.13133863 50.95898438 511.12988281 C44.05822974 512.12925214 37.26975217 512.69414234 30.296875 512.734375 C29.47832535 512.74138931 28.6597757 512.74840363 27.81642151 512.75563049 C25.19005768 512.77303269 22.56391937 512.77948262 19.9375 512.78125 C19.03977875 512.78192474 18.1420575 512.78259949 17.21713257 512.78329468 C3.97246357 512.76746434 -8.8214269 512.31583445 -21.8125 509.53125 C-22.64587891 509.36496094 -23.47925781 509.19867188 -24.33789062 509.02734375 C-80.1614154 497.77091979 -127.8928123 463.92012095 -160.0078125 417.34765625 C-162.0498436 414.13081646 -163.95809494 410.85802972 -165.8125 407.53125 C-166.25948242 406.74073242 -166.70646484 405.95021484 -167.16699219 405.13574219 C-195.79630153 354.04837212 -202.58587959 294.89838047 -186.8125 238.53125 C-177.83017755 207.07012353 -161.21969412 179.11163439 -139.8125 154.53125 C-142.64326537 150.59963144 -145.54357308 146.80302155 -148.7421875 143.1640625 C-149.26651367 142.56609863 -149.79083984 141.96813477 -150.33105469 141.35205078 C-151.37905011 140.16421645 -152.43410321 138.98256098 -153.49707031 137.80810547 C-159.89306665 130.55007602 -162.56973509 124.41802974 -162.17578125 114.63671875 C-160.92087148 103.9092643 -152.71692231 98.32859313 -144.75 91.85546875 C-138.26016267 86.94463202 -131.81001435 85.43262543 -123.8125 86.53125 C-115.27803828 89.1059651 -110.26859319 94.78016785 -104.8125 101.53125 C-103.59626953 103.01044922 -103.59626953 103.01044922 -102.35546875 104.51953125 C-100.81370371 106.40003627 -99.28023068 108.2873919 -97.7578125 110.18359375 C-96.1807466 112.08683995 -94.57197753 113.80387063 -92.8125 115.53125 C-92.16514893 115.17933594 -91.51779785 114.82742187 -90.85083008 114.46484375 C-57.99568742 96.7118842 -25.22086441 86.26311872 12.1875 84.53125 C12.1875 78.26125 12.1875 71.99125 12.1875 65.53125 C10.41503906 65.57765625 8.64257812 65.6240625 6.81640625 65.671875 C4.46095444 65.70941208 2.10548429 65.74581015 -0.25 65.78125 C-1.41466797 65.81476563 -2.57933594 65.84828125 -3.77929688 65.8828125 C-12.16198023 65.97726527 -18.48953144 65.01893311 -25.1171875 59.671875 C-25.63539063 59.04796875 -26.15359375 58.4240625 -26.6875 57.78125 C-27.22117188 57.16765625 -27.75484375 56.5540625 -28.3046875 55.921875 C-33.00985827 48.46186331 -33.27963955 41.70879794 -33.1875 33.09375 C-33.19910156 32.01287109 -33.21070313 30.93199219 -33.22265625 29.81835938 C-33.18909764 20.59533515 -31.80251648 13.30693341 -25.80078125 6.13671875 C-17.80719609 -0.31782644 -9.79809583 -0.06073502 0 0 Z M-17.65625 18.50390625 C-19.47486545 23.26548386 -19.3251723 27.91567168 -19.3125 32.96875 C-19.34085938 33.99291016 -19.36921875 35.01707031 -19.3984375 36.07226562 C-19.44210549 42.60665085 -19.44210549 42.60665085 -16.40625 48.19140625 C-12.68218532 51.55091641 -10.91831053 51.66536631 -5.98925781 51.72412109 C-4.7674884 51.74018402 -3.54571899 51.75624695 -2.28692627 51.77279663 C-0.94649959 51.784285 0.39393487 51.79489339 1.734375 51.8046875 C2.74641872 51.81267302 2.74641872 51.81267302 3.77890778 51.82081985 C7.35194258 51.84754844 10.92494253 51.86692186 14.49804688 51.88134766 C17.45083689 51.89467413 20.40293369 51.92250092 23.35546875 51.96337891 C26.92402229 52.01278418 30.49194823 52.03747829 34.06082916 52.04457474 C36.07607948 52.05452313 38.09116287 52.08874981 40.10614014 52.12338257 C47.5517623 52.30677406 47.5517623 52.30677406 54.00488281 49.12353516 C58.18288105 44.1613444 57.44241371 39.55431655 57.5 33.28125 C57.52900391 32.24355469 57.55800781 31.20585937 57.58789062 30.13671875 C57.6375029 24.16034737 57.53818056 20.06722359 53.1875 15.53125 C49.49580707 13.6987761 46.48782304 13.27544613 42.39086914 13.2565918 C41.24940933 13.24705978 40.10794952 13.23752777 38.93190002 13.22770691 C37.70784958 13.22861832 36.48379913 13.22952972 35.22265625 13.23046875 C33.32355751 13.22404106 33.32355751 13.22404106 31.38609314 13.21748352 C28.71046029 13.21174423 26.03521372 13.21029992 23.35961914 13.21557617 C19.94220557 13.22136926 16.52533426 13.20443613 13.10801029 13.1812315 C9.83372994 13.16290047 6.55947864 13.16668048 3.28515625 13.16796875 C2.06313004 13.158759 0.84110382 13.14954926 -0.41795349 13.14006042 C-9.98330315 13.19132812 -9.98330315 13.19132812 -17.65625 18.50390625 Z M-120.8125 155.53125 C-121.62460938 156.28921875 -122.43671875 157.0471875 -123.2734375 157.828125 C-130.19844236 164.51283001 -136.0884299 171.81992324 -141.8125 179.53125 C-142.21355957 180.07152832 -142.61461914 180.61180664 -143.02783203 181.16845703 C-173.67194717 222.92315358 -186.40263919 275.80122545 -179.73632812 327.05419922 C-174.56081216 360.73142712 -161.45677199 392.4270982 -140.8125 419.53125 C-139.83023438 420.83255859 -139.83023438 420.83255859 -138.828125 422.16015625 C-105.8978326 464.54770205 -57.5302096 491.22776438 -4.48046875 498.28125 C33.35689891 502.77214937 71.97321527 496.2742475 106.1875 479.53125 C106.90534668 479.18191406 107.62319336 478.83257812 108.36279297 478.47265625 C155.82166877 455.09115732 192.24011319 412.95661062 209.375 363.03125 C216.24736805 342.31932015 219.42057679 321.52126876 219.4375 299.78125 C219.43817474 299.00224335 219.43884949 298.22323669 219.43954468 297.42062378 C219.42235638 284.90384579 218.78275898 272.81275114 216.1875 260.53125 C216.02121094 259.72300781 215.85492188 258.91476562 215.68359375 258.08203125 C210.04816621 231.49116204 199.39304039 205.46958036 183.1875 183.53125 C182.43210937 182.49355469 181.67671875 181.45585937 180.8984375 180.38671875 C175.2728426 172.79470987 169.10020699 165.79746703 162.56884766 158.97558594 C161.34241961 157.69323382 160.12920513 156.39827339 158.91796875 155.1015625 C124.03024246 118.72512062 72.19342017 99.24865296 22.47167969 98.1796875 C-32.20503363 97.78948794 -81.14101849 118.50453392 -120.8125 155.53125 Z M-139.8125 106.53125 C-140.4828125 107.08039063 -141.153125 107.62953125 -141.84375 108.1953125 C-146.46951101 111.97218382 -146.46951101 111.97218382 -148.375 117.53125 C-148.26598217 123.40609981 -143.47677502 127.36942965 -139.8125 131.53125 C-138.42468034 133.18457859 -137.04860239 134.84720546 -135.67333984 136.51098633 C-133.73037656 138.86004079 -131.77117509 141.19528914 -129.8125 143.53125 C-125.81026777 141.86041518 -122.79143031 139.09829584 -119.5625 136.28125 C-114.77610019 132.16234362 -109.92716775 128.24189131 -104.8125 124.53125 C-108.75579658 118.99517088 -113.06075143 113.92481555 -117.6640625 108.92578125 C-119.15418711 107.26496964 -120.58359992 105.5484481 -121.9609375 103.79296875 C-124.15857889 101.10850807 -125.04762453 100.65872924 -128.4375 100.09375 C-133.37028774 100.73318545 -136.0982325 103.37412262 -139.8125 106.53125 Z M154.8125 109.78125 C151.05180323 114.47424681 147.18810702 119.04182283 143.1875 123.53125 C146.48647994 126.9195525 149.87735028 130.00690331 153.5625 132.96875 C157.83255875 136.42408847 162.0366983 139.93388852 166.1875 143.53125 C172.12292215 141.18655728 175.36058232 135.37910713 179.1875 130.53125 C179.89390625 129.71269531 180.6003125 128.89414063 181.328125 128.05078125 C184.26111705 124.58722763 186.02117057 122.34903638 186.9375 117.84375 C185.22286836 110.27079359 178.89643954 106.54629084 173.00390625 102.0703125 C164.53041366 97.43986024 159.90124096 103.3514329 154.8125 109.78125 Z " fill="#DD0202" transform="translate(236.8125,-0.53125)"/>
<path d="M0 0 C32.30227668 29.21119728 52.79760398 66.72687849 59.2109375 109.92578125 C59.3140625 110.61510742 59.4171875 111.30443359 59.5234375 112.01464844 C65.51003982 157.96182126 52.65097935 205.45775677 24.57177734 242.19042969 C13.60828706 256.17114173 1.5060999 268.36799168 -12.7890625 278.92578125 C-13.34625977 279.34327637 -13.90345703 279.76077148 -14.47753906 280.19091797 C-31.45962832 292.76045614 -51.41039726 301.58915786 -71.7890625 306.92578125 C-72.49450195 307.12107422 -73.19994141 307.31636719 -73.92675781 307.51757812 C-114.0746337 318.50230326 -158.59104149 313.04953449 -195.7890625 294.92578125 C-196.4809668 294.5920752 -197.17287109 294.25836914 -197.88574219 293.91455078 C-223.38483688 281.46676787 -244.8435302 262.55172393 -261.7890625 239.92578125 C-262.42714844 239.08273437 -263.06523437 238.2396875 -263.72265625 237.37109375 C-290.71920243 200.33657082 -300.97580501 152.80130301 -294.6015625 107.67578125 C-289.87479359 78.18131445 -278.3546802 49.45686939 -259.7890625 25.92578125 C-259.36544434 25.38791992 -258.94182617 24.85005859 -258.50537109 24.29589844 C-228.41175219 -13.43713106 -185.88291888 -37.61308842 -137.7890625 -43.38671875 C-87.85316526 -48.43384707 -37.71391048 -33.33453113 0 0 Z M-231.7890625 15.92578125 C-233.13097656 17.18841797 -233.13097656 17.18841797 -234.5 18.4765625 C-262.36632826 45.44523593 -281.39441586 85.96140449 -282.08984375 124.96484375 C-282.11913582 127.82714491 -282.11641574 130.68839558 -282.1015625 133.55078125 C-282.09940735 134.29934387 -282.0972522 135.04790649 -282.09503174 135.81915283 C-281.8809416 182.22473619 -262.45635941 222.17455988 -230.02734375 254.6953125 C-198.86981904 284.40760414 -156.16975427 300.03838541 -113.27734375 299.109375 C-68.75940578 297.55496424 -28.15498527 278.38793491 2.75 246.6328125 C11.86083867 236.61088996 19.46794506 225.65646567 26.2109375 213.92578125 C26.56784668 213.30541992 26.92475586 212.68505859 27.29248047 212.04589844 C46.8383199 177.32426165 51.97060802 133.45547388 42.2109375 94.92578125 C42.03433594 94.1869873 41.85773438 93.44819336 41.67578125 92.68701172 C34.92380653 64.88513061 19.70775954 40.538583 0.2109375 19.92578125 C-0.59601563 19.054375 -1.40296875 18.18296875 -2.234375 17.28515625 C-13.52317128 5.49089148 -26.58073184 -3.57190974 -41.00048828 -11.13085938 C-42.58756974 -11.96794411 -44.15661483 -12.83902831 -45.72265625 -13.71484375 C-106.38270585 -46.4110407 -183.27545124 -30.04664085 -231.7890625 15.92578125 Z " fill="#DD0202" transform="translate(373.7890625,164.07421875)"/>
<path d="M0 0 C8.38207564 4.59094601 13.63845528 10.46376259 17 19.4375 C19.21127828 28.60655834 18.43959516 37.71394086 13.5234375 45.89453125 C8.36132324 53.00127759 2.445249 57.06909069 -6 59.4375 C-9.296875 59.73828125 -9.296875 59.73828125 -12.75 59.75 C-13.87921875 59.76675781 -15.0084375 59.78351563 -16.171875 59.80078125 C-19.48940329 59.48595459 -22.08551781 58.8934247 -25.23925781 57.91479492 C-26.57963104 57.50205574 -26.57963104 57.50205574 -27.94708252 57.08097839 C-28.62454529 56.86863052 -29.30200806 56.65628265 -30 56.4375 C-30.89678467 57.35204956 -31.79356934 58.26659912 -32.7175293 59.2088623 C-41.17049781 67.82398724 -49.64449955 76.4179227 -58.13955688 84.99155426 C-62.50633371 89.40008513 -66.86535731 93.81574751 -71.20751953 98.24853516 C-75.39807215 102.52599617 -79.6078557 106.78362818 -83.83169556 111.0282135 C-85.43987555 112.65117788 -87.04099599 114.28116899 -88.63485718 115.91819763 C-90.86850401 118.20990365 -93.12593757 120.47535033 -95.390625 122.73632812 C-96.37138756 123.76023399 -96.37138756 123.76023399 -97.3719635 124.80482483 C-100.58336619 127.95974146 -102.72605979 129.8415725 -107.34667969 129.95397949 C-111 129.4375 -111 129.4375 -113.0625 127.875 C-114.45149061 124.2636244 -113.96750278 122.18771477 -113 118.4375 C-111.03244328 115.62772795 -108.6443761 113.32260062 -106.18530273 110.94165039 C-105.47314606 110.22861755 -104.76098938 109.51558472 -104.0272522 108.78094482 C-101.67664431 106.43450728 -99.30552376 104.11002135 -96.93359375 101.78515625 C-95.29703968 100.15979606 -93.66180786 98.53310351 -92.02784729 96.90513611 C-87.72878835 92.62895937 -83.41201584 88.37110829 -79.09130859 84.11682129 C-74.68349767 79.77044398 -70.29267396 75.40698032 -65.90039062 71.04492188 C-57.28346981 62.49230329 -48.64773963 53.95894787 -40 45.4375 C-40.48082031 44.33019531 -40.96164063 43.22289062 -41.45703125 42.08203125 C-45.26687508 33.08308367 -45.02917303 24.16231042 -41.390625 15.1171875 C-33.72283042 0.34160581 -15.61099062 -6.40872246 0 0 Z M-24.54296875 15.8359375 C-26.08816722 17.56603604 -26.08816722 17.56603604 -28 20.4375 C-28.433125 21.05625 -28.86625 21.675 -29.3125 22.3125 C-30.97162901 27.44071695 -30.52546357 31.88527947 -28.3125 36.6875 C-25.82634676 41.17491845 -22.90575302 43.80224899 -18 45.4375 C-11.14275595 46.16877952 -6.53398851 45.64333127 -1 41.4375 C2.70586409 36.65888577 4.43394131 32.75064158 4.34375 26.62890625 C3.50081311 21.25518357 0.18356961 17.46326033 -3.8125 14 C-10.89760294 10.52691032 -18.45022582 10.3139072 -24.54296875 15.8359375 Z " fill="#DD0202" transform="translate(269,269.5625)"/>
</svg>
